<svg width="1843" height="495" viewBox="0 0 1843 495" fill="none" xmlns="http://www.w3.org/2000/svg">
<path d="M1659.62 195.754C1686.13 181.954 1715.16 175.054 1746.72 175.054C1778.29 175.054 1802.13 181.817 1818.25 195.344C1834.51 208.871 1842.64 229.161 1842.64 256.214V408.901H1798.98L1786.89 377.749H1785.25C1774.73 391.139 1763.94 400.361 1752.87 405.417C1741.8 410.472 1727.25 413 1709.22 413C1687.36 413 1670 406.715 1657.16 394.145C1644.59 381.574 1638.3 363.471 1638.3 339.833C1638.3 316.196 1646.71 298.57 1663.51 286.956C1680.32 275.206 1706.07 268.716 1740.78 267.486L1780.54 266.256V256.214C1780.54 232.986 1768.65 221.372 1744.88 221.372C1726.57 221.372 1705.05 226.906 1680.32 237.973L1659.62 195.754ZM1702.45 340.858C1702.45 358.484 1712.56 367.296 1732.79 367.296C1747.41 367.296 1759.02 363.129 1767.63 354.794C1776.24 346.46 1780.54 335.393 1780.54 321.593V302.737L1756.36 303.557C1738.18 304.104 1724.66 307.383 1715.78 313.395C1706.89 319.407 1702.45 328.561 1702.45 340.858Z" fill="#040E1E"/>
<path d="M1615.94 175.464C1624.55 175.464 1631.59 176.079 1637.05 177.308L1632.34 235.924C1627.42 234.558 1621.27 233.874 1613.89 233.874C1593.94 233.874 1578.37 238.998 1567.16 249.246C1556.1 259.493 1550.56 273.84 1550.56 292.285V408.901H1488.05V179.768H1535.4L1544.62 218.298H1547.69C1555.07 205.182 1564.64 194.866 1576.39 187.351C1588.41 179.426 1601.59 175.464 1615.94 175.464Z" fill="#040E1E"/>
<path d="M1447.65 408.901H1399.69L1391.29 379.593H1388.01C1381.32 390.251 1371.82 398.517 1359.52 404.392C1347.23 410.131 1333.22 413 1317.51 413C1290.73 413 1270.44 405.827 1256.64 391.48C1242.98 377.134 1236.14 356.366 1236.14 329.176V179.768H1298.65V313.6C1298.65 330.269 1301.59 342.702 1307.47 350.9C1313.48 359.098 1322.84 363.197 1335.54 363.197C1353.03 363.197 1365.67 357.39 1373.46 345.777C1381.25 334.163 1385.14 314.761 1385.14 287.571V179.768H1447.65V408.901Z" fill="#040E1E"/>
<path d="M1064.78 408.901H1002.27V90H1064.78V232.235L1061.5 284.292H1062.32L1089.58 249.45L1153.73 179.768H1224.23L1133.24 279.168L1229.77 408.901H1157.62L1091.63 316.059L1064.78 337.579V408.901Z" fill="#040E1E"/>
<path d="M779.878 195.754C806.385 181.954 835.42 175.054 866.982 175.054C898.544 175.054 922.386 181.817 938.509 195.344C954.768 208.871 962.898 229.161 962.898 256.214V408.901H919.244L907.152 377.749H905.512C894.992 391.139 884.198 400.361 873.13 405.417C862.063 410.472 847.512 413 829.476 413C807.615 413 790.263 406.715 777.419 394.145C764.849 381.574 758.564 363.471 758.564 339.833C758.564 316.196 766.967 298.57 783.772 286.956C800.578 275.206 826.334 268.716 861.038 267.486L900.798 266.256V256.214C900.798 232.986 888.911 221.372 865.137 221.372C846.829 221.372 825.309 226.906 800.578 237.973L779.878 195.754ZM822.713 340.858C822.713 358.484 832.824 367.296 853.045 367.296C867.665 367.296 879.279 363.129 887.887 354.794C896.495 346.46 900.798 335.393 900.798 321.593V302.737L876.614 303.557C858.442 304.104 844.916 307.383 836.035 313.395C827.153 319.407 822.713 328.561 822.713 340.858Z" fill="#040E1E"/>
<path d="M554 335.939C574.768 345.093 592.052 351.515 605.852 355.204C619.789 358.757 633.11 360.533 645.817 360.533C658.661 360.533 668.772 357.869 676.15 352.54C683.528 347.211 687.217 339.286 687.217 328.766C687.217 322.891 685.646 317.767 682.503 313.395C679.361 308.886 674.51 304.445 667.952 300.073C661.53 295.564 648.823 288.869 629.831 279.988C610.839 270.97 596.834 262.567 587.817 254.779C567.732 237.427 557.689 215.702 557.689 189.605C557.689 163.508 566.639 142.877 584.537 127.711C602.573 112.544 627.44 104.961 659.139 104.961C685.782 104.961 715.432 111.998 748.087 126.071L727.592 175.464C712.152 169.179 699.104 164.67 688.447 161.937C677.789 159.204 666.927 157.838 655.86 157.838C644.929 157.838 636.185 160.639 629.626 166.241C623.068 171.706 619.789 179.016 619.789 188.171C619.789 193.773 621.018 198.691 623.478 202.927C626.074 207.026 630.173 211.057 635.775 215.019C641.513 218.845 655.04 225.813 676.355 235.924C704.228 249.177 723.356 262.635 733.74 276.299C744.261 289.415 749.522 305.88 749.522 325.692C749.522 352.472 739.752 373.855 720.214 389.841C700.675 405.28 674.237 413 640.898 413C607.56 413 578.594 406.988 554 394.964V335.939Z" fill="#040E1E"/>
<path d="M225.874 8.26669C207.874 32.5334 196.274 62 191.474 94.5334C189.074 112 190.674 145.333 194.808 162.667C196.674 170.4 198.541 178 199.074 179.733C199.874 182.4 198.408 181.867 188.408 175.333C174.408 166.267 159.208 159.067 142.274 153.6C119.341 146.267 109.208 144.8 83.6075 144.8C58.5408 144.8 52.4075 145.6 30.4075 152.267C12.9408 157.733 12.0075 159.067 18.6742 170.267C26.0075 182.533 27.7408 186.667 26.9408 189.2C26.5408 190.667 21.2075 193.867 13.6075 197.333C6.00751 200.8 0.674174 204 0.274173 205.467C-0.792493 208.667 0.94084 211.867 11.0742 224.8C36.5408 257.6 76.9408 282.267 119.608 291.2C125.074 292.4 137.208 294 146.408 294.933L163.208 296.533L153.741 304C128.008 324.533 106.274 354.133 93.8742 385.467C83.0742 412.667 77.6075 461.333 84.8075 465.333C86.2742 466 91.8742 465.467 100.008 463.867C118.541 460.133 117.608 459.2 120.408 484.4C121.608 495.333 123.874 496.133 138.541 491.333C191.608 473.867 235.608 430.533 255.741 376C257.874 370.133 259.741 366.8 260.141 368C267.608 388.4 273.608 401.6 280.674 412.533C304.408 449.467 340.674 478.533 378.674 491.333C395.608 496.933 396.541 496.4 398.808 477.867C401.074 461.067 401.208 460.933 417.341 464.267C437.208 468.267 437.741 467.733 436.541 442.8C434.941 407.6 422.408 371.867 401.341 342.4C392.408 329.733 371.208 307.867 361.608 301.2L354.941 296.667L372.274 295.067C410.274 291.467 439.608 281.2 469.608 260.8C491.741 245.733 522.274 211.467 518.808 205.6C518.008 204.4 511.608 200.533 504.541 197.067C494.941 192.4 491.608 190.133 491.608 188.267C491.608 186.8 494.674 180.267 498.408 173.6C503.741 164 504.808 160.933 503.741 158.933C502.274 156.267 481.608 149.333 466.274 146.4C451.741 143.6 413.341 144.4 398.274 147.733C372.408 153.467 347.608 163.733 328.408 176.667C320.141 182.267 319.341 182.533 320.008 179.733C320.408 178 322.274 170 324.274 162C329.474 140.533 330.274 110.933 326.408 88.2667C323.074 68.5334 317.741 51.7334 309.341 34.9334C303.608 23.2 290.408 3.20004 287.074 1.06671C283.741 -1.19996 280.808 0.400027 273.341 8.13336C269.074 12.6667 264.808 17.2 263.874 18.1334C260.274 21.8667 256.808 20 247.341 10C241.074 3.33336 237.074 2.94716e-05 235.074 2.94716e-05C232.941 2.94716e-05 230.274 2.40003 225.874 8.26669Z" fill="#040E1E"/>
</svg>
