<svg width="1856" height="489" viewBox="0 0 1856 489" fill="none" xmlns="http://www.w3.org/2000/svg">
<path d="M1672.62 190.754C1699.13 176.954 1728.16 170.054 1759.72 170.054C1791.29 170.054 1815.13 176.817 1831.25 190.344C1847.51 203.871 1855.64 224.161 1855.64 251.214V403.901H1811.98L1799.89 372.749H1798.25C1787.73 386.139 1776.94 395.361 1765.87 400.417C1754.8 405.472 1740.25 408 1722.22 408C1700.36 408 1683 401.715 1670.16 389.145C1657.59 376.574 1651.3 358.471 1651.3 334.833C1651.3 311.196 1659.71 293.57 1676.51 281.956C1693.32 270.206 1719.07 263.716 1753.78 262.486L1793.54 261.256V251.214C1793.54 227.986 1781.65 216.372 1757.88 216.372C1739.57 216.372 1718.05 221.906 1693.32 232.973L1672.62 190.754ZM1715.45 335.858C1715.45 353.484 1725.56 362.296 1745.79 362.296C1760.41 362.296 1772.02 358.129 1780.63 349.794C1789.24 341.46 1793.54 330.393 1793.54 316.593V297.737L1769.36 298.557C1751.18 299.104 1737.66 302.383 1728.78 308.395C1719.89 314.407 1715.45 323.561 1715.45 335.858Z" fill="#030712"/>
<path d="M1628.94 170.464C1637.55 170.464 1644.59 171.079 1650.05 172.308L1645.34 230.924C1640.42 229.558 1634.27 228.874 1626.89 228.874C1606.94 228.874 1591.37 233.998 1580.16 244.246C1569.1 254.493 1563.56 268.84 1563.56 287.285V403.901H1501.05V174.768H1548.4L1557.62 213.298H1560.69C1568.07 200.182 1577.64 189.866 1589.39 182.351C1601.41 174.426 1614.59 170.464 1628.94 170.464Z" fill="#030712"/>
<path d="M1460.65 403.901H1412.69L1404.29 374.593H1401.01C1394.32 385.251 1384.82 393.517 1372.52 399.392C1360.23 405.131 1346.22 408 1330.51 408C1303.73 408 1283.44 400.827 1269.64 386.48C1255.98 372.134 1249.14 351.366 1249.14 324.176V174.768H1311.65V308.6C1311.65 325.269 1314.59 337.702 1320.47 345.9C1326.48 354.098 1335.84 358.197 1348.54 358.197C1366.03 358.197 1378.67 352.39 1386.46 340.777C1394.25 329.163 1398.14 309.761 1398.14 282.571V174.768H1460.65V403.901Z" fill="#030712"/>
<path d="M1077.78 403.901H1015.27V85H1077.78V227.235L1074.5 279.292H1075.32L1102.58 244.45L1166.73 174.768H1237.23L1146.24 274.168L1242.77 403.901H1170.62L1104.63 311.059L1077.78 332.579V403.901Z" fill="#030712"/>
<path d="M792.878 190.754C819.385 176.954 848.42 170.054 879.982 170.054C911.544 170.054 935.386 176.817 951.509 190.344C967.768 203.871 975.898 224.161 975.898 251.214V403.901H932.244L920.152 372.749H918.512C907.992 386.139 897.198 395.361 886.13 400.417C875.063 405.472 860.512 408 842.476 408C820.615 408 803.263 401.715 790.419 389.145C777.849 376.574 771.564 358.471 771.564 334.833C771.564 311.196 779.967 293.57 796.772 281.956C813.578 270.206 839.334 263.716 874.038 262.486L913.798 261.256V251.214C913.798 227.986 901.911 216.372 878.137 216.372C859.829 216.372 838.309 221.906 813.578 232.973L792.878 190.754ZM835.713 335.858C835.713 353.484 845.824 362.296 866.045 362.296C880.665 362.296 892.279 358.129 900.887 349.794C909.495 341.46 913.798 330.393 913.798 316.593V297.737L889.614 298.557C871.442 299.104 857.916 302.383 849.035 308.395C840.153 314.407 835.713 323.561 835.713 335.858Z" fill="#030712"/>
<path d="M567 330.939C587.768 340.093 605.052 346.515 618.852 350.204C632.789 353.757 646.11 355.533 658.817 355.533C671.661 355.533 681.772 352.869 689.15 347.54C696.528 342.211 700.217 334.286 700.217 323.766C700.217 317.891 698.646 312.767 695.503 308.395C692.361 303.886 687.51 299.445 680.952 295.073C674.53 290.564 661.823 283.869 642.831 274.988C623.839 265.97 609.834 257.567 600.817 249.779C580.732 232.427 570.689 210.702 570.689 184.605C570.689 158.508 579.639 137.877 597.537 122.711C615.573 107.544 640.44 99.9612 672.139 99.9612C698.782 99.9612 728.432 106.998 761.087 121.071L740.592 170.464C725.152 164.179 712.104 159.67 701.447 156.937C690.789 154.204 679.927 152.838 668.86 152.838C657.929 152.838 649.185 155.639 642.626 161.241C636.068 166.706 632.789 174.016 632.789 183.171C632.789 188.773 634.018 193.691 636.478 197.927C639.074 202.026 643.173 206.057 648.775 210.019C654.513 213.845 668.04 220.813 689.355 230.924C717.228 244.177 736.356 257.635 746.74 271.299C757.261 284.415 762.522 300.88 762.522 320.692C762.522 347.472 752.752 368.855 733.214 384.841C713.675 400.28 687.237 408 653.898 408C620.56 408 591.594 401.988 567 389.964V330.939Z" fill="#030712"/>
<path d="M230.132 0.439352C228.462 1.40593 220.071 12.7852 215.15 20.6496C209.614 29.5685 204.43 39.9811 200.871 49.4272C200.476 50.3938 199.948 51.7558 199.641 52.5027C198.059 56.3251 195.994 63.0472 194.237 70.1208C191.645 80.5774 190.019 88.6615 189.58 93.5822C189.448 94.9003 189.096 97.3606 188.833 99.0741C187.998 104.171 188.13 131.63 189.008 138.836C190.59 151.225 193.709 166.119 196.609 175.214C197.576 178.158 197.971 180.574 197.444 180.574C197.312 180.574 195.511 179.3 193.446 177.762C191.381 176.225 187.646 173.764 185.186 172.27C182.77 170.777 180.441 169.371 180.09 169.107C175.125 166.075 168.578 162.692 160.978 159.309C159.528 158.65 157.77 157.86 157.023 157.508C150.653 154.652 139.318 150.83 129.344 148.238C123.721 146.788 121.612 146.305 118.141 145.689C93.1415 141.12 67.4833 141.384 45.0324 146.392C39.2329 147.667 38.2663 147.93 34.8833 148.941C33.2138 149.468 31.2367 150.039 30.4898 150.215C28.0733 150.918 19.0227 154.081 18.0561 154.608C16.4305 155.487 14.8928 157.904 14.8928 159.617C14.8928 160.979 16.6062 164.977 17.9682 166.735C18.144 166.954 18.8469 168.14 19.506 169.371C20.165 170.557 22.2739 174.335 24.1631 177.762C26.1841 181.365 27.634 184.44 27.634 185.187C27.634 186.681 26.2281 189.01 24.8221 189.976C24.251 190.328 21.7027 191.558 19.1984 192.656C14.3655 194.853 12.7399 195.6 6.01782 198.719C2.28332 200.477 1.62429 200.96 0.833456 202.498C-0.572474 205.266 -0.352798 206.144 2.67874 210.758C12.9157 226.311 27.2386 241.468 43.275 253.814C46.0868 255.967 55.3132 262.294 55.6647 262.294C55.7965 262.294 56.2359 262.557 56.5874 262.909C58.6523 264.666 73.3707 272.531 80.4442 275.606C86.2876 278.154 92.834 280.747 93.4491 280.747C93.7127 280.747 94.4596 281.01 95.1626 281.362C96.92 282.196 98.5456 282.768 105.839 284.877C111.55 286.502 122.578 288.919 128.466 289.797C129.212 289.929 131.585 290.281 133.738 290.632C137.736 291.247 149.686 292.082 157.111 292.302C163.043 292.433 163.043 292.389 156.496 297.135C154.563 298.54 152.63 300.034 152.147 300.43C151.707 300.869 149.906 302.319 148.192 303.681C143.799 307.196 131.321 319.585 126.445 325.341C113.44 340.587 103.291 357.018 95.558 375.076C90.0221 388.037 86.8149 398.845 83.6515 414.969C81.2351 427.183 80.1367 448.536 81.4987 456.356C81.8502 458.157 84.003 460.354 85.8483 460.706C87.1663 460.925 91.2523 460.222 107.508 456.883C111.902 455.961 112.122 455.961 113.791 456.708C116.954 458.157 117.35 459.519 118.8 473.842C120.03 486.012 120.337 486.979 123.457 488.385C125.214 489.132 125.346 489.132 128.378 488.385C130.135 487.946 133.035 487.067 134.836 486.496C136.637 485.881 138.746 485.265 139.449 485.046C140.196 484.826 141.866 484.255 143.184 483.728C144.502 483.201 146.084 482.629 146.699 482.454C149.335 481.619 160.714 476.259 166.118 473.271C182.77 464.177 194.369 455.433 208.428 441.33C218.138 431.664 225.123 423.273 231.538 413.651C233.822 410.224 235.887 407.061 236.195 406.621C236.459 406.138 237.733 404.073 238.963 402.008C241.116 398.449 246.915 387.114 248.936 382.457C252.056 375.251 255.658 365.278 255.658 363.872C255.658 362.642 256.493 362.203 257.108 363.125C257.416 363.521 258.119 365.234 258.646 366.992C264.314 384.742 275.605 406.27 287.248 421.559C295.156 431.928 308.205 445.724 316.728 452.841C330.963 464.66 347.439 474.809 362.201 480.872C364.398 481.751 366.771 482.717 367.474 483.025C374.371 486.012 384.389 489 387.552 489C389.661 489 390.1 488.824 391.287 487.594C392.868 485.925 393.395 484.123 394.011 477.753C395.636 461.76 395.988 459.827 397.921 458.113C400.03 456.224 400.777 456.268 416.461 459.519C426.259 461.584 427.138 461.628 429.071 460.442C431.927 458.729 432.059 458.026 432.059 445.065C432.059 433.729 431.663 428.018 430.257 419.143C428.412 407.236 424.633 392.87 420.504 382.018C417.867 375.032 411.277 360.841 408.992 357.194C408.773 356.843 407.543 354.734 406.312 352.581C401.348 344.013 393.132 332.59 385.926 324.243C377.491 314.533 362.685 300.869 354.82 295.641C350.251 292.609 350.69 292.17 358.599 292.17C367.386 292.126 379.248 290.984 388.563 289.27C399.502 287.249 414.704 283.295 418.878 281.406C419.625 281.054 421.646 280.307 423.403 279.692C430.828 277.056 443.086 271.344 450.292 267.039C452.093 265.984 453.894 264.974 454.246 264.798C456.443 263.7 463.999 258.559 469.799 254.21C485.308 242.611 500.026 227.277 510.351 211.988C513.91 206.672 514.349 204.739 512.548 202.058C511.45 200.389 510.088 199.686 496.687 193.579C489.482 190.284 487.9 189.405 487.197 188.263C485.528 185.539 485.923 184.001 490.317 176.532C491.02 175.346 491.591 174.291 491.591 174.204C491.591 174.028 495.15 167.833 495.984 166.515C496.204 166.163 497.039 164.582 497.786 163.044C498.84 160.891 499.06 159.925 498.84 158.738C498.313 155.926 496.775 154.828 490.053 152.499C470.546 145.777 455.871 143.097 435.31 142.482C421.119 142.087 410.003 143.053 392.517 146.305C384.169 147.842 366.331 153.422 356.709 157.464C349.856 160.364 337.905 166.515 332.106 170.118C330.788 170.908 328.723 172.182 327.536 172.885C326.35 173.632 323.407 175.653 320.99 177.367C318.574 179.124 316.421 180.574 316.201 180.574C315.63 180.574 316.069 178.07 317.387 174.204C320.199 165.812 323.45 149.951 324.856 137.518C325.779 129.346 325.779 105.664 324.856 99.5574C324.505 97.141 324.197 94.5049 324.197 93.6701C324.197 88.7493 318.574 64.4531 315.586 56.5447C315.235 55.666 314.707 54.1722 314.356 53.2496C312.862 49.2075 312.335 47.8456 310.577 43.7156C305.129 30.7987 297.529 17.8817 288.478 5.9752C284.612 0.92264 283.425 -1.36346e-06 280.745 -1.36346e-06C278.373 -1.36346e-06 277.011 0.878705 273.672 4.61321C261.37 18.2332 259.92 19.683 258.031 20.0345C255.131 20.5617 253.857 19.683 247.223 12.3898C243.796 8.61132 239.754 4.26172 238.216 2.72399C235.58 0.0439339 235.448 -1.36346e-06 233.163 -1.36346e-06C231.889 -1.36346e-06 230.527 0.219675 230.132 0.439352ZM261.414 99.7332C263.83 100.832 264.357 101.271 265.983 103.424C268.751 107.07 268.575 103.16 268.707 163C268.795 193.096 268.839 218.139 268.839 218.71C268.839 219.457 269.234 219.896 270.508 220.38C279.208 223.85 285.578 228.508 290.455 234.922C291.378 236.152 292.476 237.295 292.828 237.426C293.487 237.69 298.1 236.416 300.824 235.23C301.615 234.878 302.537 234.615 302.889 234.615C303.24 234.615 304.163 234.351 304.954 233.999C305.745 233.648 310.27 232.154 314.971 230.616C324.285 227.673 331.93 225.168 333.512 224.553C334.566 224.158 337.202 223.323 351.437 218.798C356.138 217.304 360.664 215.81 361.454 215.459C362.245 215.107 363.168 214.844 363.519 214.844C363.871 214.844 364.794 214.58 365.584 214.229C366.375 213.877 370.901 212.383 375.602 210.889C385.136 207.858 388.519 206.76 390.1 206.144C393.352 204.826 399.371 203.245 401.084 203.289C405.214 203.333 409.432 206.188 411.365 210.23C413.474 214.712 412.551 219.237 408.729 223.016C406.488 225.256 406.356 225.3 395.988 228.683C385.443 232.11 381.797 233.296 379.336 234.175C377.886 234.658 374.459 235.757 361.542 239.887C356.841 241.381 352.316 242.874 351.525 243.226C350.734 243.577 349.812 243.841 349.46 243.841C349.109 243.841 348.186 244.105 347.395 244.456C346.604 244.808 344.056 245.642 341.771 246.389C326.482 251.266 316.289 254.561 314.971 255.044C314.136 255.396 310.49 256.582 306.931 257.725C303.328 258.867 300.121 260.053 299.857 260.361C299.55 260.668 299.154 262.645 299.022 264.798C298.495 271.74 296.298 277.891 292.169 284.13C291.202 285.623 290.367 287.205 290.367 287.644C290.367 288.084 291.422 289.841 292.696 291.555C293.926 293.312 296.87 297.31 299.154 300.518C301.439 303.725 305.042 308.733 307.194 311.677C309.303 314.577 312.642 319.278 314.663 322.046C320.639 330.35 329.821 343.047 333.6 348.231C335.577 350.911 338.564 355.085 340.234 357.458C341.947 359.83 344.979 364.048 347 366.816C354.161 376.613 355.831 379.206 356.534 381.402C357.896 385.488 356.622 389.838 353.283 392.87C351.13 394.803 350.515 395.154 347.747 395.813C346.077 396.209 345.067 396.209 343.353 395.813C339.619 394.978 337.378 393.221 333.995 388.476C330.568 383.687 323.802 374.329 316.553 364.312C313.873 360.665 310.314 355.7 308.6 353.328C305.173 348.495 299.066 340.059 291.905 330.174C283.118 318.004 277.406 310.095 274.946 306.625C271.123 301.22 271.167 301.264 268.663 301.616C267.477 301.748 265.412 302.187 264.05 302.539C260.447 303.461 253.549 303.329 248.365 302.231C245.992 301.704 243.708 301.264 243.356 301.22C242.653 301.177 241.599 302.539 229.209 319.673C227.671 321.782 224.464 326.176 222.048 329.515C219.631 332.81 214.974 339.225 211.723 343.75C208.472 348.275 204.386 353.855 202.672 356.227C200.959 358.556 197.224 363.74 194.325 367.739C175.564 393.529 176.355 392.518 173.455 394.363C171.742 395.418 171.083 395.594 168.007 395.594C163.043 395.594 159.791 393.66 157.551 389.487C156.233 386.982 156.189 381.842 157.551 379.337C158.385 377.712 162.164 372.44 173.28 357.194C180.573 347.221 186.46 339.137 187.734 337.291C189.008 335.446 196.961 324.55 202.409 317.125C203.946 315.016 205.66 312.688 206.143 311.985C206.67 311.282 207.988 309.436 209.087 307.899C210.141 306.361 212.733 302.802 214.798 299.99C221.564 290.676 222.487 289.402 223.058 288.347C223.585 287.381 223.454 286.985 221.477 283.91C217.171 277.144 215.238 271.52 214.579 263.963C214.403 262.118 214.052 260.405 213.788 260.185C213.48 259.965 208.516 258.252 202.716 256.363C196.917 254.517 191.469 252.716 190.634 252.408C189.799 252.057 184.351 250.299 178.552 248.454C172.752 246.609 167.348 244.808 166.557 244.456C165.767 244.105 164.844 243.841 164.492 243.841C164.141 243.841 163.218 243.533 162.428 243.182C161.637 242.83 157.726 241.556 153.728 240.326C146.347 237.998 136.989 235.01 134.616 234.175C131.277 232.989 127.85 231.847 119.898 229.342C108.475 225.696 106.805 224.993 104.872 223.104C99.2485 217.524 100.698 208.034 107.684 204.651C110.584 203.245 112.649 202.893 114.626 203.42C118.668 204.475 119.107 204.607 123.852 206.276C125.829 206.979 132.024 208.956 140.328 211.549C143.975 212.691 147.577 213.877 148.368 214.229C149.159 214.58 150.082 214.844 150.433 214.844C150.785 214.844 151.707 215.107 152.498 215.459C153.289 215.81 158.693 217.612 164.492 219.457C170.292 221.346 176.443 223.323 178.112 223.938C179.826 224.509 181.803 225.168 182.506 225.388C183.253 225.564 185.318 226.223 187.119 226.838C188.921 227.453 193.402 228.859 197.005 230.001C200.651 231.144 204.078 232.242 204.693 232.506C205.308 232.769 206.407 233.121 207.11 233.296C208.384 233.648 209.614 234.043 213.041 235.274C213.876 235.581 215.985 236.284 217.654 236.811L220.73 237.778L222.707 235.405C228.814 228.068 234.833 223.631 242.697 220.643L244.894 219.852L245.114 163.835L245.333 107.861L246.564 105.313C249.288 99.865 256.054 97.2728 261.414 99.7332Z" fill="black"/>
</svg>
