<svg width="420" height="373" viewBox="0 0 420 373" fill="none" xmlns="http://www.w3.org/2000/svg">
<rect width="420" height="373" rx="42" fill="white"/>
<rect x="197" y="60" width="189" height="55" rx="27.5" fill="#F3F4F6"/>
<path d="M216.91 93V83.64H222.955V85.109H218.477V87.4165H222.175V88.8855H218.477V91.531H222.955V93H216.91ZM228.59 93V89.62C228.59 89.399 228.575 89.1542 228.544 88.8855C228.514 88.6168 228.443 88.359 228.33 88.112C228.222 87.8607 228.057 87.6548 227.836 87.4945C227.619 87.3342 227.325 87.254 226.952 87.254C226.753 87.254 226.555 87.2865 226.36 87.3515C226.165 87.4165 225.988 87.5292 225.827 87.6895C225.671 87.8455 225.546 88.0622 225.45 88.3395C225.355 88.6125 225.307 88.9635 225.307 89.3925L224.378 88.996C224.378 88.398 224.493 87.8563 224.722 87.371C224.956 86.8857 225.299 86.5 225.749 86.214C226.2 85.9237 226.755 85.7785 227.413 85.7785C227.933 85.7785 228.362 85.8652 228.7 86.0385C229.038 86.2118 229.307 86.4328 229.506 86.7015C229.706 86.9702 229.853 87.2562 229.948 87.5595C230.044 87.8628 230.104 88.151 230.13 88.424C230.161 88.6927 230.176 88.9115 230.176 89.0805V93H228.59ZM223.721 93V85.98H225.119V88.1575H225.307V93H223.721ZM232.587 93L230.442 85.967L231.976 85.98L233.348 90.4845L234.739 85.98H236.058L237.443 90.4845L238.821 85.98H240.355L238.21 93H236.988L235.395 88.1705L233.809 93H232.587ZM243.685 93.195C242.975 93.195 242.351 93.0412 241.813 92.7335C241.276 92.4258 240.856 91.999 240.552 91.453C240.253 90.907 240.104 90.2787 240.104 89.568C240.104 88.801 240.251 88.1358 240.546 87.5725C240.84 87.0048 241.25 86.565 241.774 86.253C242.299 85.941 242.905 85.785 243.594 85.785C244.322 85.785 244.94 85.9562 245.447 86.2985C245.958 86.6365 246.337 87.1153 246.584 87.735C246.831 88.3547 246.924 89.0848 246.864 89.9255H245.31V89.3535C245.306 88.5908 245.172 88.034 244.907 87.683C244.643 87.332 244.227 87.1565 243.659 87.1565C243.018 87.1565 242.541 87.3558 242.229 87.7545C241.917 88.1488 241.761 88.7273 241.761 89.49C241.761 90.2007 241.917 90.751 242.229 91.141C242.541 91.531 242.996 91.726 243.594 91.726C243.98 91.726 244.311 91.6415 244.589 91.4725C244.87 91.2992 245.087 91.05 245.239 90.725L246.786 91.193C246.517 91.8257 246.101 92.3175 245.538 92.6685C244.979 93.0195 244.361 93.195 243.685 93.195ZM241.267 89.9255V88.7425H246.097V89.9255H241.267ZM247.534 93V85.98H248.919V87.6895L248.75 87.4685C248.836 87.2345 248.951 87.0222 249.094 86.8315C249.241 86.6365 249.417 86.4762 249.621 86.3505C249.794 86.2335 249.985 86.1425 250.193 86.0775C250.405 86.0082 250.622 85.967 250.843 85.954C251.064 85.9367 251.278 85.9453 251.486 85.98V87.4425C251.278 87.3818 251.038 87.3623 250.765 87.384C250.496 87.4057 250.253 87.4815 250.037 87.6115C249.82 87.7285 249.642 87.878 249.504 88.06C249.369 88.242 249.27 88.45 249.205 88.684C249.14 88.9137 249.107 89.1628 249.107 89.4315V93H247.534ZM255.011 93.195C254.3 93.195 253.676 93.0412 253.139 92.7335C252.602 92.4258 252.181 91.999 251.878 91.453C251.579 90.907 251.43 90.2787 251.43 89.568C251.43 88.801 251.577 88.1358 251.872 87.5725C252.166 87.0048 252.576 86.565 253.1 86.253C253.624 85.941 254.231 85.785 254.92 85.785C255.648 85.785 256.266 85.9562 256.773 86.2985C257.284 86.6365 257.663 87.1153 257.91 87.735C258.157 88.3547 258.25 89.0848 258.19 89.9255H256.636V89.3535C256.632 88.5908 256.497 88.034 256.233 87.683C255.969 87.332 255.553 87.1565 254.985 87.1565C254.344 87.1565 253.867 87.3558 253.555 87.7545C253.243 88.1488 253.087 88.7273 253.087 89.49C253.087 90.2007 253.243 90.751 253.555 91.141C253.867 91.531 254.322 91.726 254.92 91.726C255.306 91.726 255.637 91.6415 255.915 91.4725C256.196 91.2992 256.413 91.05 256.565 90.725L258.112 91.193C257.843 91.8257 257.427 92.3175 256.864 92.6685C256.305 93.0195 255.687 93.195 255.011 93.195ZM252.593 89.9255V88.7425H257.423V89.9255H252.593ZM269.113 93V88.736C269.113 88.255 268.994 87.8802 268.755 87.6115C268.517 87.3385 268.194 87.202 267.787 87.202C267.536 87.202 267.31 87.2605 267.111 87.3775C266.912 87.4902 266.753 87.6592 266.636 87.8845C266.519 88.1055 266.461 88.3698 266.461 88.6775L265.765 88.268C265.761 87.7827 265.869 87.3558 266.09 86.9875C266.316 86.6148 266.619 86.3245 267 86.1165C267.382 85.9085 267.806 85.8045 268.274 85.8045C269.05 85.8045 269.644 86.0385 270.055 86.5065C270.471 86.9702 270.679 87.5812 270.679 88.3395V93H269.113ZM260.669 93V85.98H262.054V88.1575H262.249V93H260.669ZM264.901 93V88.7555C264.901 88.2658 264.782 87.8845 264.543 87.6115C264.305 87.3385 263.98 87.202 263.568 87.202C263.17 87.202 262.849 87.3385 262.606 87.6115C262.368 87.8845 262.249 88.2398 262.249 88.6775L261.547 88.2095C261.547 87.7545 261.66 87.345 261.885 86.981C262.11 86.617 262.414 86.331 262.795 86.123C263.181 85.9107 263.612 85.8045 264.088 85.8045C264.613 85.8045 265.05 85.9172 265.401 86.1425C265.757 86.3635 266.021 86.6668 266.194 87.0525C266.372 87.4338 266.461 87.865 266.461 88.346V93H264.901ZM281.848 93V88.736C281.848 88.255 281.729 87.8802 281.49 87.6115C281.252 87.3385 280.929 87.202 280.522 87.202C280.271 87.202 280.045 87.2605 279.846 87.3775C279.647 87.4902 279.488 87.6592 279.371 87.8845C279.254 88.1055 279.196 88.3698 279.196 88.6775L278.5 88.268C278.496 87.7827 278.604 87.3558 278.825 86.9875C279.051 86.6148 279.354 86.3245 279.735 86.1165C280.117 85.9085 280.541 85.8045 281.009 85.8045C281.785 85.8045 282.379 86.0385 282.79 86.5065C283.206 86.9702 283.414 87.5812 283.414 88.3395V93H281.848ZM273.404 93V85.98H274.789V88.1575H274.984V93H273.404ZM277.636 93V88.7555C277.636 88.2658 277.517 87.8845 277.278 87.6115C277.04 87.3385 276.715 87.202 276.303 87.202C275.905 87.202 275.584 87.3385 275.341 87.6115C275.103 87.8845 274.984 88.2398 274.984 88.6775L274.282 88.2095C274.282 87.7545 274.395 87.345 274.62 86.981C274.845 86.617 275.149 86.331 275.53 86.123C275.916 85.9107 276.347 85.8045 276.823 85.8045C277.348 85.8045 277.785 85.9172 278.136 86.1425C278.492 86.3635 278.756 86.6668 278.929 87.0525C279.107 87.4338 279.196 87.865 279.196 88.346V93H277.636ZM292.76 93V88.736C292.76 88.255 292.641 87.8802 292.403 87.6115C292.164 87.3385 291.842 87.202 291.434 87.202C291.183 87.202 290.958 87.2605 290.758 87.3775C290.559 87.4902 290.401 87.6592 290.284 87.8845C290.167 88.1055 290.108 88.3698 290.108 88.6775L289.413 88.268C289.408 87.7827 289.517 87.3558 289.738 86.9875C289.963 86.6148 290.266 86.3245 290.648 86.1165C291.029 85.9085 291.454 85.8045 291.922 85.8045C292.697 85.8045 293.291 86.0385 293.703 86.5065C294.119 86.9702 294.327 87.5812 294.327 88.3395V93H292.76ZM284.317 93V85.98H285.701V88.1575H285.896V93H284.317ZM288.548 93V88.7555C288.548 88.2658 288.429 87.8845 288.191 87.6115C287.952 87.3385 287.627 87.202 287.216 87.202C286.817 87.202 286.496 87.3385 286.254 87.6115C286.015 87.8845 285.896 88.2398 285.896 88.6775L285.194 88.2095C285.194 87.7545 285.307 87.345 285.532 86.981C285.758 86.617 286.061 86.331 286.442 86.123C286.828 85.9107 287.259 85.8045 287.736 85.8045C288.26 85.8045 288.698 85.9172 289.049 86.1425C289.404 86.3635 289.668 86.6668 289.842 87.0525C290.019 87.4338 290.108 87.865 290.108 88.346V93H288.548ZM298.319 93.195C297.609 93.195 296.985 93.0412 296.447 92.7335C295.91 92.4258 295.49 91.999 295.186 91.453C294.887 90.907 294.738 90.2787 294.738 89.568C294.738 88.801 294.885 88.1358 295.18 87.5725C295.475 87.0048 295.884 86.565 296.408 86.253C296.933 85.941 297.539 85.785 298.228 85.785C298.956 85.785 299.574 85.9562 300.081 86.2985C300.592 86.6365 300.971 87.1153 301.218 87.735C301.465 88.3547 301.559 89.0848 301.498 89.9255H299.944V89.3535C299.94 88.5908 299.806 88.034 299.541 87.683C299.277 87.332 298.861 87.1565 298.293 87.1565C297.652 87.1565 297.175 87.3558 296.863 87.7545C296.551 88.1488 296.395 88.7273 296.395 89.49C296.395 90.2007 296.551 90.751 296.863 91.141C297.175 91.531 297.63 91.726 298.228 91.726C298.614 91.726 298.946 91.6415 299.223 91.4725C299.505 91.2992 299.721 91.05 299.873 90.725L301.42 91.193C301.151 91.8257 300.735 92.3175 300.172 92.6685C299.613 93.0195 298.995 93.195 298.319 93.195ZM295.901 89.9255V88.7425H300.731V89.9255H295.901ZM301.128 96.12V94.651H301.46C301.841 94.651 302.112 94.5622 302.272 94.3845C302.432 94.2068 302.513 93.9447 302.513 93.598V85.98H304.073V94.3C304.073 94.8677 303.906 95.3118 303.572 95.6325C303.243 95.9575 302.783 96.12 302.194 96.12H301.128ZM302.513 84.914V83.4775H304.073V84.914H302.513ZM307.441 95.522V94.0855H309.04V95.522H307.441ZM308.234 93.195C307.532 93.195 306.919 93.0368 306.394 92.7205C305.87 92.4042 305.463 91.9687 305.172 91.414C304.886 90.855 304.743 90.2137 304.743 89.49C304.743 88.7533 304.891 88.1077 305.185 87.553C305.48 86.9983 305.889 86.565 306.414 86.253C306.938 85.941 307.545 85.785 308.234 85.785C308.94 85.785 309.555 85.9432 310.08 86.2595C310.604 86.5758 311.011 87.0135 311.302 87.5725C311.592 88.1272 311.737 88.7663 311.737 89.49C311.737 90.218 311.59 90.8615 311.295 91.4205C311.005 91.9752 310.598 92.4107 310.073 92.727C309.549 93.039 308.936 93.195 308.234 93.195ZM308.234 91.726C308.858 91.726 309.321 91.518 309.625 91.102C309.928 90.686 310.08 90.1487 310.08 89.49C310.08 88.8097 309.926 88.268 309.618 87.865C309.311 87.4577 308.849 87.254 308.234 87.254C307.813 87.254 307.467 87.3493 307.194 87.54C306.925 87.7263 306.726 87.9885 306.596 88.3265C306.466 88.6602 306.401 89.048 306.401 89.49C306.401 90.1703 306.555 90.7142 306.862 91.1215C307.174 91.5245 307.631 91.726 308.234 91.726ZM319.067 93V89.62C319.067 89.399 319.052 89.1542 319.022 88.8855C318.992 88.6168 318.92 88.359 318.807 88.112C318.699 87.8607 318.534 87.6548 318.313 87.4945C318.097 87.3342 317.802 87.254 317.429 87.254C317.23 87.254 317.033 87.2865 316.838 87.3515C316.643 87.4165 316.465 87.5292 316.305 87.6895C316.149 87.8455 316.023 88.0622 315.928 88.3395C315.833 88.6125 315.785 88.9635 315.785 89.3925L314.855 88.996C314.855 88.398 314.97 87.8563 315.2 87.371C315.434 86.8857 315.776 86.5 316.227 86.214C316.678 85.9237 317.232 85.7785 317.891 85.7785C318.411 85.7785 318.84 85.8652 319.178 86.0385C319.516 86.2118 319.785 86.4328 319.984 86.7015C320.183 86.9702 320.331 87.2562 320.426 87.5595C320.521 87.8628 320.582 88.151 320.608 88.424C320.638 88.6927 320.653 88.9115 320.653 89.0805V93H319.067ZM314.199 93V85.98H315.596V88.1575H315.785V93H314.199ZM321.244 86.968L321.335 86.292C321.534 86.3093 321.693 86.2768 321.81 86.1945C321.927 86.1078 322.005 85.9887 322.044 85.837C322.087 85.681 322.098 85.5055 322.076 85.3105H321.244V83.64H322.85V85.3755C322.85 85.9432 322.715 86.3722 322.447 86.6625C322.178 86.9528 321.777 87.0547 321.244 86.968ZM326.323 95.522V94.0855H327.928V95.522H326.323ZM326.596 93.2015C326.076 93.2015 325.647 93.1148 325.309 92.9415C324.971 92.7682 324.702 92.5472 324.503 92.2785C324.304 92.0098 324.156 91.7238 324.061 91.4205C323.966 91.1172 323.903 90.8312 323.872 90.5625C323.846 90.2895 323.833 90.0685 323.833 89.8995V85.98H325.419V89.36C325.419 89.5767 325.435 89.8215 325.465 90.0945C325.495 90.3632 325.565 90.6232 325.673 90.8745C325.786 91.1215 325.95 91.3252 326.167 91.4855C326.388 91.6458 326.685 91.726 327.057 91.726C327.257 91.726 327.454 91.6935 327.649 91.6285C327.844 91.5635 328.019 91.453 328.175 91.297C328.336 91.1367 328.464 90.9178 328.559 90.6405C328.654 90.3632 328.702 90.0122 328.702 89.5875L329.631 89.984C329.631 90.582 329.514 91.1237 329.28 91.609C329.051 92.0943 328.711 92.4822 328.26 92.7725C327.809 93.0585 327.255 93.2015 326.596 93.2015ZM328.89 93V90.8225H328.702V85.98H330.275V93H328.89ZM334.272 96.315C333.882 96.315 333.507 96.2543 333.148 96.133C332.792 96.0117 332.472 95.8362 332.186 95.6065C331.9 95.3812 331.666 95.1082 331.484 94.7875L332.927 94.0725C333.061 94.3282 333.25 94.5167 333.492 94.638C333.739 94.7637 334.001 94.8265 334.279 94.8265C334.604 94.8265 334.894 94.768 335.15 94.651C335.405 94.5383 335.603 94.3693 335.741 94.144C335.884 93.923 335.951 93.6457 335.943 93.312V91.3165H336.138V85.98H337.509V93.338C337.509 93.5157 337.501 93.6847 337.483 93.845C337.47 94.0097 337.446 94.17 337.412 94.326C337.308 94.781 337.108 95.1537 336.814 95.444C336.519 95.7387 336.153 95.9575 335.715 96.1005C335.282 96.2435 334.801 96.315 334.272 96.315ZM334.136 93.195C333.49 93.195 332.927 93.0325 332.446 92.7075C331.965 92.3825 331.592 91.9405 331.328 91.3815C331.063 90.8225 330.931 90.192 330.931 89.49C330.931 88.7793 331.063 88.1467 331.328 87.592C331.596 87.033 331.976 86.5932 332.465 86.2725C332.955 85.9475 333.531 85.785 334.194 85.785C334.862 85.785 335.421 85.9475 335.871 86.2725C336.326 86.5932 336.671 87.033 336.905 87.592C337.139 88.151 337.256 88.7837 337.256 89.49C337.256 90.1877 337.139 90.8182 336.905 91.3815C336.671 91.9405 336.322 92.3825 335.858 92.7075C335.395 93.0325 334.82 93.195 334.136 93.195ZM334.376 91.791C334.797 91.791 335.135 91.6957 335.39 91.505C335.65 91.31 335.839 91.0392 335.956 90.6925C336.077 90.3458 336.138 89.945 336.138 89.49C336.138 89.0307 336.077 88.6298 335.956 88.2875C335.839 87.9408 335.655 87.6722 335.403 87.4815C335.152 87.2865 334.827 87.189 334.428 87.189C334.008 87.189 333.661 87.293 333.388 87.501C333.115 87.7047 332.914 87.982 332.784 88.333C332.654 88.6797 332.589 89.0653 332.589 89.49C332.589 89.919 332.652 90.309 332.777 90.66C332.907 91.0067 333.104 91.2818 333.369 91.4855C333.633 91.6892 333.969 91.791 334.376 91.791ZM340.047 93L337.902 85.967L339.436 85.98L340.807 90.4845L342.198 85.98H343.518L344.902 90.4845L346.28 85.98H347.814L345.669 93H344.447L342.855 88.1705L341.269 93H340.047ZM350.261 95.522V94.0855H351.86V95.522H350.261ZM351.054 93.195C350.352 93.195 349.739 93.0368 349.215 92.7205C348.69 92.4042 348.283 91.9687 347.993 91.414C347.707 90.855 347.564 90.2137 347.564 89.49C347.564 88.7533 347.711 88.1077 348.006 87.553C348.3 86.9983 348.71 86.565 349.234 86.253C349.758 85.941 350.365 85.785 351.054 85.785C351.76 85.785 352.376 85.9432 352.9 86.2595C353.424 86.5758 353.832 87.0135 354.122 87.5725C354.412 88.1272 354.558 88.7663 354.558 89.49C354.558 90.218 354.41 90.8615 354.116 91.4205C353.825 91.9752 353.418 92.4107 352.894 92.727C352.369 93.039 351.756 93.195 351.054 93.195ZM351.054 91.726C351.678 91.726 352.142 91.518 352.445 91.102C352.748 90.686 352.9 90.1487 352.9 89.49C352.9 88.8097 352.746 88.268 352.439 87.865C352.131 87.4577 351.669 87.254 351.054 87.254C350.634 87.254 350.287 87.3493 350.014 87.54C349.745 87.7263 349.546 87.9885 349.416 88.3265C349.286 88.6602 349.221 89.048 349.221 89.49C349.221 90.1703 349.375 90.7142 349.683 91.1215C349.995 91.5245 350.452 91.726 351.054 91.726ZM365.463 93V88.736C365.463 88.255 365.344 87.8802 365.105 87.6115C364.867 87.3385 364.544 87.202 364.137 87.202C363.885 87.202 363.66 87.2605 363.461 87.3775C363.261 87.4902 363.103 87.6592 362.986 87.8845C362.869 88.1055 362.811 88.3698 362.811 88.6775L362.115 88.268C362.111 87.7827 362.219 87.3558 362.44 86.9875C362.666 86.6148 362.969 86.3245 363.35 86.1165C363.732 85.9085 364.156 85.8045 364.624 85.8045C365.4 85.8045 365.994 86.0385 366.405 86.5065C366.821 86.9702 367.029 87.5812 367.029 88.3395V93H365.463ZM357.019 93V85.98H358.404V88.1575H358.599V93H357.019ZM361.251 93V88.7555C361.251 88.2658 361.132 87.8845 360.893 87.6115C360.655 87.3385 360.33 87.202 359.918 87.202C359.52 87.202 359.199 87.3385 358.956 87.6115C358.718 87.8845 358.599 88.2398 358.599 88.6775L357.897 88.2095C357.897 87.7545 358.009 87.345 358.235 86.981C358.46 86.617 358.763 86.331 359.145 86.123C359.53 85.9107 359.962 85.8045 360.438 85.8045C360.963 85.8045 361.4 85.9172 361.751 86.1425C362.107 86.3635 362.371 86.6668 362.544 87.0525C362.722 87.4338 362.811 87.865 362.811 88.346V93H361.251ZM368.205 93V91.3945H369.81V93H368.205Z" fill="black"/>
<rect x="278" y="215" width="113" height="55" rx="27.5" fill="#F3F4F6"/>
<path d="M312.159 247V239.109H309.13V237.64H316.755V239.109H313.726V247H312.159ZM316.234 247L319.406 242.268L316.325 237.64H318.242L320.374 240.935L322.487 237.64H324.417L321.336 242.268L324.495 247H322.578L320.374 243.6L318.164 247H316.234ZM326.377 247V239.349L324.622 240.422V238.693L326.377 237.64H327.976V247H326.377ZM329.413 246.987V245.622L333.417 242.053C333.729 241.776 333.945 241.514 334.067 241.267C334.188 241.02 334.249 240.782 334.249 240.552C334.249 240.24 334.181 239.963 334.047 239.72C333.913 239.473 333.726 239.278 333.488 239.135C333.254 238.992 332.983 238.92 332.676 238.92C332.351 238.92 332.062 238.996 331.811 239.148C331.564 239.295 331.371 239.492 331.233 239.739C331.094 239.986 331.029 240.253 331.038 240.539H329.426C329.426 239.915 329.564 239.371 329.842 238.907C330.123 238.444 330.509 238.084 330.999 237.828C331.493 237.573 332.062 237.445 332.708 237.445C333.306 237.445 333.843 237.579 334.32 237.848C334.797 238.112 335.172 238.481 335.445 238.953C335.718 239.421 335.854 239.96 335.854 240.571C335.854 241.018 335.793 241.393 335.672 241.696C335.551 241.999 335.369 242.279 335.126 242.534C334.888 242.79 334.591 243.074 334.236 243.386L331.395 245.901L331.252 245.511H335.854V246.987H329.413ZM339.315 247.176C338.847 247.176 338.405 247.085 337.989 246.902C337.573 246.72 337.211 246.463 336.903 246.129C336.6 245.795 336.381 245.401 336.247 244.946L337.761 244.536C337.87 244.909 338.067 245.197 338.353 245.401C338.643 245.6 338.962 245.698 339.308 245.693C339.616 245.693 339.891 245.622 340.134 245.479C340.376 245.336 340.567 245.143 340.706 244.9C340.844 244.653 340.914 244.378 340.914 244.075C340.914 243.611 340.764 243.223 340.465 242.911C340.166 242.599 339.781 242.443 339.308 242.443C339.165 242.443 339.024 242.463 338.886 242.502C338.751 242.541 338.621 242.595 338.496 242.664L337.781 241.429L340.927 238.738L341.063 239.115H336.611V237.64H342.35V239.122L339.822 241.553L339.809 241.091C340.376 241.13 340.86 241.289 341.258 241.566C341.661 241.843 341.969 242.201 342.181 242.638C342.398 243.076 342.506 243.555 342.506 244.075C342.506 244.664 342.361 245.193 342.071 245.661C341.785 246.129 341.399 246.499 340.914 246.772C340.433 247.041 339.9 247.176 339.315 247.176ZM347.297 247V245.453H343.15V243.99L346.147 237.64H347.934L344.938 243.99H347.297V241.553H348.883V243.99H349.761V245.453H348.883V247H347.297ZM353.315 247.195C352.838 247.195 352.394 247.098 351.983 246.902C351.571 246.703 351.216 246.43 350.917 246.083C350.622 245.737 350.41 245.334 350.28 244.874L351.788 244.471C351.848 244.723 351.959 244.939 352.119 245.121C352.284 245.303 352.474 245.444 352.691 245.544C352.912 245.644 353.14 245.693 353.374 245.693C353.677 245.693 353.954 245.62 354.206 245.472C354.457 245.325 354.656 245.128 354.804 244.881C354.951 244.63 355.025 244.352 355.025 244.049C355.025 243.746 354.949 243.47 354.797 243.223C354.65 242.972 354.45 242.775 354.199 242.632C353.948 242.485 353.673 242.411 353.374 242.411C353.014 242.411 352.715 242.476 352.477 242.606C352.243 242.736 352.063 242.875 351.937 243.022L350.598 242.593L350.884 237.64H355.967V239.109H351.723L352.308 238.556L352.1 242.001L351.814 241.65C352.056 241.429 352.338 241.265 352.659 241.156C352.979 241.048 353.289 240.994 353.588 240.994C354.173 240.994 354.691 241.128 355.142 241.397C355.597 241.661 355.952 242.023 356.208 242.482C356.468 242.942 356.598 243.464 356.598 244.049C356.598 244.634 356.446 245.165 356.143 245.641C355.839 246.114 355.438 246.491 354.94 246.772C354.446 247.054 353.904 247.195 353.315 247.195ZM357.637 247V245.394H359.242V247H357.637Z" fill="black"/>
<rect x="29" y="138" width="189" height="55" rx="27.5" fill="#EE66AA"/>
<path d="M44.91 171V161.64H46.4765V165.982L50.214 161.64H52.138L48.1145 166.229L52.411 171H50.422L46.4765 166.632V171H44.91ZM55.218 171.195C54.5073 171.195 53.8833 171.041 53.346 170.733C52.8087 170.426 52.3883 169.999 52.085 169.453C51.786 168.907 51.6365 168.279 51.6365 167.568C51.6365 166.801 51.7838 166.136 52.0785 165.572C52.3732 165.005 52.7827 164.565 53.307 164.253C53.8313 163.941 54.438 163.785 55.127 163.785C55.855 163.785 56.4725 163.956 56.9795 164.298C57.4908 164.636 57.87 165.115 58.117 165.735C58.364 166.355 58.4572 167.085 58.3965 167.925H56.843V167.353C56.8387 166.591 56.7043 166.034 56.44 165.683C56.1757 165.332 55.7597 165.156 55.192 165.156C54.5507 165.156 54.074 165.356 53.762 165.754C53.45 166.149 53.294 166.727 53.294 167.49C53.294 168.201 53.45 168.751 53.762 169.141C54.074 169.531 54.529 169.726 55.127 169.726C55.5127 169.726 55.8442 169.641 56.1215 169.472C56.4032 169.299 56.6198 169.05 56.7715 168.725L58.3185 169.193C58.0498 169.826 57.6338 170.317 57.0705 170.668C56.5115 171.019 55.894 171.195 55.218 171.195ZM52.8 167.925V166.742H57.6295V167.925H52.8ZM61.8813 171.195C61.2356 171.195 60.6723 171.033 60.1913 170.707C59.7103 170.382 59.3376 169.94 59.0733 169.381C58.809 168.822 58.6768 168.192 58.6768 167.49C58.6768 166.779 58.809 166.147 59.0733 165.592C59.342 165.033 59.7211 164.593 60.2108 164.272C60.7005 163.947 61.2768 163.785 61.9398 163.785C62.6071 163.785 63.1661 163.947 63.6168 164.272C64.0718 164.593 64.4163 165.033 64.6503 165.592C64.8843 166.151 65.0013 166.784 65.0013 167.49C65.0013 168.188 64.8843 168.818 64.6503 169.381C64.4163 169.94 64.0675 170.382 63.6038 170.707C63.1401 171.033 62.566 171.195 61.8813 171.195ZM62.1218 169.791C62.5421 169.791 62.8801 169.696 63.1358 169.505C63.3958 169.31 63.5843 169.039 63.7013 168.692C63.8226 168.346 63.8833 167.945 63.8833 167.49C63.8833 167.031 63.8226 166.63 63.7013 166.287C63.5843 165.941 63.4001 165.672 63.1488 165.481C62.8975 165.286 62.5725 165.189 62.1738 165.189C61.7535 165.189 61.4068 165.293 61.1338 165.501C60.8608 165.705 60.6593 165.982 60.5293 166.333C60.3993 166.68 60.3343 167.065 60.3343 167.49C60.3343 167.919 60.3971 168.309 60.5228 168.66C60.6528 169.007 60.85 169.282 61.1143 169.485C61.3786 169.689 61.7145 169.791 62.1218 169.791ZM63.8833 171V166.073H63.6883V161.64H65.2678V171H63.8833ZM68.9427 171.202C68.4227 171.202 67.9937 171.115 67.6557 170.941C67.3177 170.768 67.0491 170.547 66.8497 170.278C66.6504 170.01 66.5031 169.724 66.4077 169.42C66.3124 169.117 66.2496 168.831 66.2192 168.562C66.1932 168.289 66.1802 168.068 66.1802 167.899V163.98H67.7662V167.36C67.7662 167.577 67.7814 167.821 67.8117 168.094C67.8421 168.363 67.9114 168.623 68.0197 168.874C68.1324 169.121 68.2971 169.325 68.5137 169.485C68.7347 169.646 69.0316 169.726 69.4042 169.726C69.6036 169.726 69.8007 169.693 69.9957 169.628C70.1907 169.563 70.3662 169.453 70.5222 169.297C70.6826 169.137 70.8104 168.918 70.9057 168.64C71.0011 168.363 71.0487 168.012 71.0487 167.587L71.9782 167.984C71.9782 168.582 71.8612 169.124 71.6272 169.609C71.3976 170.094 71.0574 170.482 70.6067 170.772C70.1561 171.059 69.6014 171.202 68.9427 171.202ZM71.2372 171V168.822H71.0487V163.98H72.6217V171H71.2372ZM75.6205 171V161.64H77.187V171H75.6205ZM78.354 171V161.64H81.3375C81.4155 161.64 81.5694 161.642 81.799 161.646C82.033 161.651 82.2584 161.666 82.475 161.692C83.216 161.787 83.8422 162.052 84.3535 162.485C84.8692 162.914 85.2592 163.462 85.5235 164.129C85.7879 164.797 85.92 165.527 85.92 166.32C85.92 167.113 85.7879 167.843 85.5235 168.51C85.2592 169.178 84.8692 169.728 84.3535 170.161C83.8422 170.59 83.216 170.853 82.475 170.948C82.2627 170.974 82.0395 170.989 81.8055 170.993C81.5715 170.998 81.4155 171 81.3375 171H78.354ZM79.9465 169.524H81.3375C81.4675 169.524 81.6322 169.52 81.8315 169.511C82.0352 169.503 82.215 169.483 82.371 169.453C82.813 169.371 83.1727 169.173 83.45 168.861C83.7274 168.549 83.931 168.17 84.061 167.724C84.1954 167.278 84.2625 166.81 84.2625 166.32C84.2625 165.813 84.1954 165.336 84.061 164.89C83.9267 164.444 83.7187 164.069 83.437 163.765C83.1597 163.462 82.8044 163.269 82.371 163.187C82.215 163.152 82.0352 163.133 81.8315 163.128C81.6322 163.12 81.4675 163.115 81.3375 163.115H79.9465V169.524ZM93.3546 171V167.62C93.3546 167.399 93.3394 167.154 93.3091 166.885C93.2788 166.617 93.2073 166.359 93.0946 166.112C92.9863 165.861 92.8216 165.655 92.6006 165.494C92.3839 165.334 92.0893 165.254 91.7166 165.254C91.5173 165.254 91.3201 165.286 91.1251 165.351C90.9301 165.416 90.7524 165.529 90.5921 165.689C90.4361 165.845 90.3104 166.062 90.2151 166.339C90.1198 166.612 90.0721 166.963 90.0721 167.392L89.1426 166.996C89.1426 166.398 89.2574 165.856 89.4871 165.371C89.7211 164.886 90.0634 164.5 90.5141 164.214C90.9648 163.924 91.5194 163.778 92.1781 163.778C92.6981 163.778 93.1271 163.865 93.4651 164.038C93.8031 164.212 94.0718 164.433 94.2711 164.701C94.4704 164.97 94.6178 165.256 94.7131 165.559C94.8084 165.863 94.8691 166.151 94.8951 166.424C94.9254 166.693 94.9406 166.911 94.9406 167.08V171H93.3546ZM88.4861 171V163.98H89.8836V166.157H90.0721V171H88.4861ZM95.8438 171L95.8568 161.64H97.4428V167.36L100.01 163.98H101.967L99.2433 167.49L102.201 171H100.127L97.4428 167.62V171H95.8438ZM105.136 171.195C104.426 171.195 103.802 171.041 103.264 170.733C102.727 170.426 102.307 169.999 102.003 169.453C101.704 168.907 101.555 168.279 101.555 167.568C101.555 166.801 101.702 166.136 101.997 165.572C102.292 165.005 102.701 164.565 103.225 164.253C103.75 163.941 104.356 163.785 105.045 163.785C105.773 163.785 106.391 163.956 106.898 164.298C107.409 164.636 107.788 165.115 108.035 165.735C108.282 166.355 108.376 167.085 108.315 167.925H106.761V167.353C106.757 166.591 106.623 166.034 106.358 165.683C106.094 165.332 105.678 165.156 105.11 165.156C104.469 165.156 103.992 165.356 103.68 165.754C103.368 166.149 103.212 166.727 103.212 167.49C103.212 168.201 103.368 168.751 103.68 169.141C103.992 169.531 104.447 169.726 105.045 169.726C105.431 169.726 105.763 169.641 106.04 169.472C106.322 169.299 106.538 169.05 106.69 168.725L108.237 169.193C107.968 169.826 107.552 170.317 106.989 170.668C106.43 171.019 105.812 171.195 105.136 171.195ZM102.718 167.925V166.742H107.548V167.925H102.718ZM112.771 171.195C112.264 171.195 111.835 171.1 111.484 170.909C111.133 170.714 110.866 170.456 110.684 170.135C110.507 169.815 110.418 169.462 110.418 169.076C110.418 168.738 110.474 168.435 110.587 168.166C110.699 167.893 110.873 167.659 111.107 167.464C111.341 167.265 111.644 167.102 112.017 166.976C112.298 166.885 112.628 166.803 113.005 166.729C113.386 166.656 113.798 166.589 114.24 166.528C114.686 166.463 115.152 166.394 115.637 166.32L115.078 166.638C115.083 166.153 114.974 165.796 114.753 165.566C114.532 165.336 114.16 165.221 113.635 165.221C113.319 165.221 113.013 165.295 112.719 165.442C112.424 165.59 112.218 165.843 112.101 166.203L110.671 165.754C110.845 165.161 111.174 164.684 111.659 164.324C112.149 163.965 112.808 163.785 113.635 163.785C114.259 163.785 114.807 163.887 115.28 164.09C115.756 164.294 116.11 164.628 116.339 165.091C116.465 165.338 116.541 165.592 116.567 165.852C116.593 166.108 116.606 166.387 116.606 166.69V171H115.234V169.479L115.462 169.726C115.145 170.233 114.775 170.606 114.35 170.844C113.93 171.078 113.403 171.195 112.771 171.195ZM113.083 169.947C113.438 169.947 113.741 169.884 113.993 169.758C114.244 169.633 114.443 169.479 114.591 169.297C114.742 169.115 114.844 168.944 114.896 168.783C114.979 168.584 115.024 168.357 115.033 168.101C115.046 167.841 115.052 167.631 115.052 167.47L115.533 167.613C115.061 167.687 114.656 167.752 114.318 167.808C113.98 167.865 113.689 167.919 113.447 167.971C113.204 168.019 112.99 168.073 112.803 168.133C112.621 168.198 112.467 168.274 112.342 168.361C112.216 168.448 112.119 168.547 112.049 168.66C111.984 168.773 111.952 168.905 111.952 169.056C111.952 169.23 111.995 169.384 112.082 169.518C112.168 169.648 112.294 169.752 112.459 169.83C112.628 169.908 112.836 169.947 113.083 169.947ZM116.868 171V170.786L120.586 165.351H117.245V163.98H123.024V164.201L119.319 169.628H122.868V171H116.868ZM126.029 173.522V172.086H127.635V173.522H126.029ZM126.302 171.202C125.782 171.202 125.353 171.115 125.015 170.941C124.677 170.768 124.409 170.547 124.209 170.278C124.01 170.01 123.863 169.724 123.767 169.42C123.672 169.117 123.609 168.831 123.579 168.562C123.553 168.289 123.54 168.068 123.54 167.899V163.98H125.126V167.36C125.126 167.577 125.141 167.821 125.171 168.094C125.202 168.363 125.271 168.623 125.379 168.874C125.492 169.121 125.657 169.325 125.873 169.485C126.094 169.646 126.391 169.726 126.764 169.726C126.963 169.726 127.16 169.693 127.355 169.628C127.55 169.563 127.726 169.453 127.882 169.297C128.042 169.137 128.17 168.918 128.265 168.64C128.361 168.363 128.408 168.012 128.408 167.587L129.338 167.984C129.338 168.582 129.221 169.124 128.987 169.609C128.757 170.094 128.417 170.482 127.966 170.772C127.516 171.059 126.961 171.202 126.302 171.202ZM128.597 171V168.822H128.408V163.98H129.981V171H128.597ZM139.458 171V166.736C139.458 166.255 139.339 165.88 139.1 165.611C138.862 165.338 138.539 165.202 138.132 165.202C137.881 165.202 137.655 165.26 137.456 165.377C137.257 165.49 137.098 165.659 136.981 165.884C136.864 166.105 136.806 166.37 136.806 166.677L136.11 166.268C136.106 165.783 136.214 165.356 136.435 164.987C136.661 164.615 136.964 164.324 137.345 164.116C137.727 163.908 138.151 163.805 138.619 163.805C139.395 163.805 139.989 164.038 140.4 164.506C140.816 164.97 141.024 165.581 141.024 166.339V171H139.458ZM131.014 171V163.98H132.399V166.157H132.594V171H131.014ZM135.246 171V166.755C135.246 166.266 135.127 165.884 134.888 165.611C134.65 165.338 134.325 165.202 133.913 165.202C133.515 165.202 133.194 165.338 132.951 165.611C132.713 165.884 132.594 166.24 132.594 166.677L131.892 166.209C131.892 165.754 132.005 165.345 132.23 164.981C132.455 164.617 132.759 164.331 133.14 164.123C133.526 163.911 133.957 163.805 134.433 163.805C134.958 163.805 135.395 163.917 135.746 164.142C136.102 164.363 136.366 164.667 136.539 165.052C136.717 165.434 136.806 165.865 136.806 166.346V171H135.246ZM143.903 171.195C143.396 171.195 142.967 171.1 142.616 170.909C142.265 170.714 141.998 170.456 141.816 170.135C141.639 169.815 141.55 169.462 141.55 169.076C141.55 168.738 141.606 168.435 141.719 168.166C141.831 167.893 142.005 167.659 142.239 167.464C142.473 167.265 142.776 167.102 143.149 166.976C143.43 166.885 143.76 166.803 144.137 166.729C144.518 166.656 144.93 166.589 145.372 166.528C145.818 166.463 146.284 166.394 146.769 166.32L146.21 166.638C146.215 166.153 146.106 165.796 145.885 165.566C145.664 165.336 145.292 165.221 144.767 165.221C144.451 165.221 144.145 165.295 143.851 165.442C143.556 165.59 143.35 165.843 143.233 166.203L141.803 165.754C141.977 165.161 142.306 164.684 142.791 164.324C143.281 163.965 143.94 163.785 144.767 163.785C145.391 163.785 145.939 163.887 146.412 164.09C146.888 164.294 147.242 164.628 147.471 165.091C147.597 165.338 147.673 165.592 147.699 165.852C147.725 166.108 147.738 166.387 147.738 166.69V171H146.366V169.479L146.594 169.726C146.277 170.233 145.907 170.606 145.482 170.844C145.062 171.078 144.535 171.195 143.903 171.195ZM144.215 169.947C144.57 169.947 144.873 169.884 145.125 169.758C145.376 169.633 145.575 169.479 145.723 169.297C145.874 169.115 145.976 168.944 146.028 168.783C146.111 168.584 146.156 168.357 146.165 168.101C146.178 167.841 146.184 167.631 146.184 167.47L146.665 167.613C146.193 167.687 145.788 167.752 145.45 167.808C145.112 167.865 144.821 167.919 144.579 167.971C144.336 168.019 144.122 168.073 143.935 168.133C143.753 168.198 143.599 168.274 143.474 168.361C143.348 168.448 143.251 168.547 143.181 168.66C143.116 168.773 143.084 168.905 143.084 169.056C143.084 169.23 143.127 169.384 143.214 169.518C143.3 169.648 143.426 169.752 143.591 169.83C143.76 169.908 143.968 169.947 144.215 169.947ZM153.505 171V167.62C153.505 167.399 153.49 167.154 153.46 166.885C153.43 166.617 153.358 166.359 153.245 166.112C153.137 165.861 152.972 165.655 152.751 165.494C152.535 165.334 152.24 165.254 151.867 165.254C151.668 165.254 151.471 165.286 151.276 165.351C151.081 165.416 150.903 165.529 150.743 165.689C150.587 165.845 150.461 166.062 150.366 166.339C150.271 166.612 150.223 166.963 150.223 167.392L149.293 166.996C149.293 166.398 149.408 165.856 149.638 165.371C149.872 164.886 150.214 164.5 150.665 164.214C151.116 163.924 151.67 163.778 152.329 163.778C152.849 163.778 153.278 163.865 153.616 164.038C153.954 164.212 154.223 164.433 154.422 164.701C154.621 164.97 154.769 165.256 154.864 165.559C154.959 165.863 155.02 166.151 155.046 166.424C155.076 166.693 155.091 166.911 155.091 167.08V171H153.505ZM148.637 171V161.64H150.034V166.567H150.223V171H148.637ZM156.118 173.522V172.086H157.724V173.522H156.118ZM156.138 162.914V161.477H157.704V162.914H156.138ZM156.138 171V163.98H157.704V171H156.138ZM160.834 171.195C160.327 171.195 159.898 171.1 159.547 170.909C159.196 170.714 158.93 170.456 158.748 170.135C158.57 169.815 158.481 169.462 158.481 169.076C158.481 168.738 158.538 168.435 158.65 168.166C158.763 167.893 158.936 167.659 159.17 167.464C159.404 167.265 159.708 167.102 160.08 166.976C160.362 166.885 160.691 166.803 161.068 166.729C161.45 166.656 161.861 166.589 162.303 166.528C162.75 166.463 163.215 166.394 163.701 166.32L163.142 166.638C163.146 166.153 163.038 165.796 162.817 165.566C162.596 165.336 162.223 165.221 161.699 165.221C161.382 165.221 161.077 165.295 160.782 165.442C160.488 165.59 160.282 165.843 160.165 166.203L158.735 165.754C158.908 165.161 159.237 164.684 159.723 164.324C160.212 163.965 160.871 163.785 161.699 163.785C162.323 163.785 162.871 163.887 163.343 164.09C163.82 164.294 164.173 164.628 164.403 165.091C164.528 165.338 164.604 165.592 164.63 165.852C164.656 166.108 164.669 166.387 164.669 166.69V171H163.298V169.479L163.525 169.726C163.209 170.233 162.838 170.606 162.414 170.844C161.993 171.078 161.467 171.195 160.834 171.195ZM161.146 169.947C161.502 169.947 161.805 169.884 162.056 169.758C162.308 169.633 162.507 169.479 162.654 169.297C162.806 169.115 162.908 168.944 162.96 168.783C163.042 168.584 163.088 168.357 163.096 168.101C163.109 167.841 163.116 167.631 163.116 167.47L163.597 167.613C163.124 167.687 162.719 167.752 162.381 167.808C162.043 167.865 161.753 167.919 161.51 167.971C161.268 168.019 161.053 168.073 160.867 168.133C160.685 168.198 160.531 168.274 160.405 168.361C160.28 168.448 160.182 168.547 160.113 168.66C160.048 168.773 160.015 168.905 160.015 169.056C160.015 169.23 160.059 169.384 160.145 169.518C160.232 169.648 160.358 169.752 160.522 169.83C160.691 169.908 160.899 169.947 161.146 169.947ZM170.355 174.315C169.965 174.315 169.59 174.254 169.231 174.133C168.875 174.012 168.555 173.836 168.269 173.607C167.983 173.381 167.749 173.108 167.567 172.788L169.01 172.073C169.144 172.328 169.332 172.517 169.575 172.638C169.822 172.764 170.084 172.827 170.362 172.827C170.687 172.827 170.977 172.768 171.233 172.651C171.488 172.538 171.685 172.369 171.824 172.144C171.967 171.923 172.034 171.646 172.026 171.312V169.316H172.221V163.98H173.592V171.338C173.592 171.516 173.583 171.685 173.566 171.845C173.553 172.01 173.529 172.17 173.495 172.326C173.391 172.781 173.191 173.154 172.897 173.444C172.602 173.739 172.236 173.958 171.798 174.101C171.365 174.244 170.884 174.315 170.355 174.315ZM170.219 171.195C169.573 171.195 169.01 171.033 168.529 170.707C168.048 170.382 167.675 169.94 167.411 169.381C167.146 168.822 167.014 168.192 167.014 167.49C167.014 166.779 167.146 166.147 167.411 165.592C167.679 165.033 168.058 164.593 168.548 164.272C169.038 163.947 169.614 163.785 170.277 163.785C170.944 163.785 171.503 163.947 171.954 164.272C172.409 164.593 172.754 165.033 172.988 165.592C173.222 166.151 173.339 166.784 173.339 167.49C173.339 168.188 173.222 168.818 172.988 169.381C172.754 169.94 172.405 170.382 171.941 170.707C171.477 171.033 170.903 171.195 170.219 171.195ZM170.459 169.791C170.879 169.791 171.217 169.696 171.473 169.505C171.733 169.31 171.922 169.039 172.039 168.692C172.16 168.346 172.221 167.945 172.221 167.49C172.221 167.031 172.16 166.63 172.039 166.287C171.922 165.941 171.737 165.672 171.486 165.481C171.235 165.286 170.91 165.189 170.511 165.189C170.091 165.189 169.744 165.293 169.471 165.501C169.198 165.705 168.997 165.982 168.867 166.333C168.737 166.68 168.672 167.065 168.672 167.49C168.672 167.919 168.734 168.309 168.86 168.66C168.99 169.007 169.187 169.282 169.452 169.485C169.716 169.689 170.052 169.791 170.459 169.791ZM174.745 173.522V172.086H176.351V173.522H174.745ZM174.765 162.914V161.477H176.331V162.914H174.765ZM174.765 171V163.98H176.331V171H174.765ZM179.195 168.458C179.195 168.159 179.223 167.871 179.279 167.594C179.34 167.312 179.437 167.052 179.572 166.814C179.689 166.584 179.819 166.402 179.962 166.268C180.105 166.129 180.265 165.993 180.443 165.858C180.62 165.72 180.818 165.536 181.034 165.306C181.212 165.111 181.329 164.918 181.385 164.727C181.442 164.532 181.47 164.324 181.47 164.103C181.47 163.96 181.455 163.826 181.424 163.7C181.394 163.575 181.34 163.466 181.262 163.375C181.14 163.215 180.984 163.102 180.794 163.037C180.603 162.968 180.399 162.933 180.183 162.933C180.005 162.933 179.834 162.957 179.669 163.005C179.509 163.048 179.372 163.118 179.26 163.213C179.13 163.317 179.034 163.445 178.974 163.596C178.913 163.748 178.885 163.915 178.889 164.097H177.238C177.282 163.664 177.399 163.263 177.589 162.894C177.784 162.522 178.04 162.225 178.356 162.004C178.603 161.822 178.881 161.685 179.188 161.594C179.5 161.503 179.812 161.458 180.124 161.458C180.601 161.458 181.049 161.532 181.47 161.679C181.894 161.826 182.248 162.069 182.529 162.407C182.724 162.628 182.872 162.884 182.971 163.174C183.075 163.464 183.127 163.759 183.127 164.058C183.127 164.504 183.03 164.912 182.835 165.28C182.644 165.648 182.401 165.988 182.107 166.3C181.968 166.448 181.836 166.578 181.71 166.69C181.585 166.803 181.468 166.914 181.359 167.022C181.255 167.126 181.169 167.236 181.099 167.353C180.978 167.557 180.906 167.73 180.885 167.873C180.863 168.012 180.852 168.207 180.852 168.458H179.195ZM179.208 171V169.277H180.852V171H179.208Z" fill="black"/>
</svg>
