<svg width="32" height="31" viewBox="0 0 32 31" fill="none" xmlns="http://www.w3.org/2000/svg">
<path d="M13.9246 0.953713C12.815 2.42605 12.0999 4.21389 11.8039 6.18779C11.656 7.24755 11.7546 9.26999 12.0094 10.3217C12.1245 10.7909 12.2396 11.252 12.2725 11.3571C12.3218 11.5189 12.2314 11.4866 11.6149 11.0902C10.7518 10.5401 9.81478 10.1032 8.77088 9.77155C7.35709 9.32662 6.73239 9.23763 5.15421 9.23763C3.60891 9.23763 3.2308 9.28617 1.87455 9.69066C0.797773 10.0223 0.740235 10.1032 1.15122 10.7828C1.6033 11.527 1.71016 11.7778 1.66084 11.9315C1.63618 12.0205 1.30739 12.2147 0.838872 12.425C0.370349 12.6353 0.0415612 12.8295 0.0169022 12.9185C-0.0488554 13.1126 0.0580006 13.3068 0.682697 14.0915C2.25266 16.0816 4.74323 17.5782 7.37353 18.1202C7.71054 18.193 8.45853 18.2901 9.02569 18.3467L10.0614 18.4438L9.47777 18.8968C7.89137 20.1426 6.55156 21.9386 5.78713 23.8396C5.12133 25.49 4.78432 28.4427 5.22819 28.6854C5.3186 28.7259 5.66383 28.6935 6.16523 28.5964C7.30777 28.3699 7.25023 28.3133 7.42285 29.8423C7.49682 30.5056 7.63656 30.5542 8.54072 30.2629C11.8122 29.2032 14.5247 26.574 15.7658 23.2653C15.8974 22.9093 16.0124 22.7071 16.0371 22.7799C16.4974 24.0176 16.8673 24.8185 17.3029 25.4819C18.766 27.7227 21.0018 29.4863 23.3444 30.2629C24.3883 30.6027 24.4458 30.5703 24.5856 29.4459C24.7253 28.4265 24.7335 28.4185 25.7281 28.6207C26.9528 28.8634 26.9857 28.831 26.9117 27.3182C26.8131 25.1826 26.0405 23.0145 24.7417 21.2267C24.191 20.4581 22.8841 19.1314 22.2923 18.7269L21.8813 18.4519L22.9498 18.3548C25.2925 18.1364 27.1008 17.5135 28.9502 16.2757C30.3147 15.3616 32.197 13.2825 31.9833 12.9266C31.934 12.8538 31.5394 12.6192 31.1038 12.4088C30.512 12.1257 30.3065 11.9881 30.3065 11.8749C30.3065 11.7859 30.4955 11.3895 30.7257 10.985C31.0545 10.4026 31.1202 10.2165 31.0545 10.0951C30.9641 9.93335 29.69 9.51268 28.7447 9.33471C27.8488 9.16482 25.4815 9.21336 24.5527 9.4156C22.9581 9.76346 21.4292 10.3864 20.2456 11.1711C19.7359 11.5109 19.6866 11.527 19.7277 11.3571C19.7524 11.252 19.8675 10.7666 19.9908 10.2812C20.3113 8.97876 20.3606 7.18283 20.1223 5.80757C19.9168 4.61029 19.588 3.59098 19.0702 2.57167C18.7167 1.85977 17.903 0.646303 17.6975 0.516866C17.492 0.37934 17.3111 0.476418 16.8508 0.945624C16.5878 1.22068 16.3248 1.49573 16.2672 1.55236C16.0453 1.77887 15.8316 1.66561 15.248 1.05888C14.8617 0.654392 14.6151 0.452148 14.4918 0.452148C14.3603 0.452148 14.1959 0.597764 13.9246 0.953713Z" fill="white"/>
</svg>
