<svg width="420" height="373" viewBox="0 0 420 373" fill="none" xmlns="http://www.w3.org/2000/svg">
<g clip-path="url(#clip0_153_32)">
<rect width="420" height="373" rx="42" fill="white"/>
<rect x="78" y="54" width="394" height="55" rx="27.5" fill="#444851"/>
<path d="M109.394 89.285C108.393 89.285 107.49 89.1108 106.686 88.7625C105.888 88.4142 105.229 87.917 104.71 87.271C104.197 86.6187 103.871 85.846 103.732 84.953L106.107 84.592C106.309 85.4027 106.724 86.0297 107.351 86.473C107.984 86.9163 108.713 87.138 109.536 87.138C110.024 87.138 110.483 87.062 110.914 86.91C111.344 86.758 111.693 86.5363 111.959 86.245C112.231 85.9537 112.367 85.5958 112.367 85.1715C112.367 84.9815 112.335 84.8073 112.272 84.649C112.209 84.4843 112.114 84.3387 111.987 84.212C111.867 84.0853 111.708 83.9713 111.512 83.87C111.322 83.7623 111.1 83.6705 110.847 83.5945L107.313 82.5495C107.009 82.4608 106.68 82.3437 106.325 82.198C105.977 82.046 105.644 81.8402 105.328 81.5805C105.017 81.3145 104.761 80.9788 104.558 80.5735C104.362 80.1618 104.264 79.6552 104.264 79.0535C104.264 78.1732 104.485 77.4353 104.929 76.84C105.378 76.2383 105.98 75.7887 106.734 75.491C107.494 75.1933 108.336 75.0477 109.261 75.054C110.198 75.0603 111.034 75.2218 111.769 75.5385C112.503 75.8488 113.118 76.3017 113.612 76.897C114.106 77.4923 114.454 78.2112 114.657 79.0535L112.196 79.481C112.095 78.9997 111.898 78.5912 111.607 78.2555C111.322 77.9135 110.971 77.6538 110.553 77.4765C110.141 77.2992 109.701 77.2042 109.232 77.1915C108.776 77.1852 108.352 77.2548 107.959 77.4005C107.573 77.5398 107.259 77.7425 107.019 78.0085C106.784 78.2745 106.667 78.5848 106.667 78.9395C106.667 79.2752 106.768 79.5507 106.971 79.766C107.174 79.975 107.424 80.1428 107.722 80.2695C108.026 80.3898 108.333 80.4912 108.643 80.5735L111.094 81.2575C111.43 81.3462 111.807 81.4665 112.225 81.6185C112.643 81.7705 113.045 81.9827 113.431 82.255C113.817 82.5273 114.134 82.8852 114.381 83.3285C114.634 83.7718 114.761 84.3355 114.761 85.0195C114.761 85.7288 114.612 86.3527 114.315 86.891C114.023 87.423 113.627 87.8663 113.127 88.221C112.627 88.5757 112.054 88.8417 111.408 89.019C110.768 89.1963 110.097 89.285 109.394 89.285ZM121.463 89.285C120.095 89.285 118.923 88.9873 117.948 88.392C116.972 87.7903 116.222 86.9543 115.696 85.884C115.177 84.8137 114.917 83.5723 114.917 82.16C114.917 80.7477 115.177 79.5063 115.696 78.436C116.222 77.3657 116.972 76.5328 117.948 75.9375C118.923 75.3358 120.095 75.035 121.463 75.035C122.831 75.035 124.002 75.3358 124.978 75.9375C125.959 76.5328 126.71 77.3657 127.229 78.436C127.755 79.5063 128.018 80.7477 128.018 82.16C128.018 83.5723 127.755 84.8137 127.229 85.884C126.71 86.9543 125.959 87.7903 124.978 88.392C124.002 88.9873 122.831 89.285 121.463 89.285ZM121.463 87.1285C122.381 87.1348 123.144 86.9322 123.752 86.5205C124.367 86.1088 124.826 85.5293 125.13 84.782C125.44 84.0347 125.595 83.1607 125.595 82.16C125.595 81.1593 125.44 80.2917 125.13 79.557C124.826 78.816 124.367 78.2397 123.752 77.828C123.144 77.4163 122.381 77.2042 121.463 77.1915C120.544 77.1852 119.781 77.3878 119.173 77.7995C118.565 78.2112 118.106 78.7907 117.796 79.538C117.492 80.2853 117.34 81.1593 117.34 82.16C117.34 83.1607 117.492 84.0315 117.796 84.7725C118.1 85.5072 118.556 86.0803 119.164 86.492C119.778 86.9037 120.544 87.1158 121.463 87.1285ZM128.769 89V75.32H134.421C134.554 75.32 134.725 75.3263 134.934 75.339C135.143 75.3453 135.336 75.3643 135.514 75.396C136.305 75.5163 136.958 75.7792 137.471 76.1845C137.99 76.5898 138.373 77.1028 138.62 77.7235C138.874 78.3378 139 79.0218 139 79.7755C139 80.5228 138.874 81.2068 138.62 81.8275C138.367 82.4418 137.981 82.9517 137.461 83.357C136.948 83.7623 136.299 84.0252 135.514 84.1455C135.336 84.1708 135.14 84.1898 134.925 84.2025C134.716 84.2152 134.548 84.2215 134.421 84.2215H131.058V89H128.769ZM131.058 82.084H134.326C134.453 82.084 134.595 82.0777 134.754 82.065C134.912 82.0523 135.058 82.027 135.191 81.989C135.571 81.894 135.868 81.7262 136.084 81.4855C136.305 81.2448 136.461 80.9725 136.549 80.6685C136.644 80.3645 136.692 80.0668 136.692 79.7755C136.692 79.4842 136.644 79.1865 136.549 78.8825C136.461 78.5722 136.305 78.2967 136.084 78.056C135.868 77.8153 135.571 77.6475 135.191 77.5525C135.058 77.5145 134.912 77.4923 134.754 77.486C134.595 77.4733 134.453 77.467 134.326 77.467H131.058V82.084ZM142.237 83.908V82.1125H147.937V83.908H142.237ZM151.929 89V75.32H157.582C157.715 75.32 157.886 75.3263 158.095 75.339C158.304 75.3453 158.497 75.3643 158.674 75.396C159.466 75.5163 160.118 75.7792 160.631 76.1845C161.151 76.5898 161.534 77.1028 161.781 77.7235C162.034 78.3378 162.161 79.0218 162.161 79.7755C162.161 80.8902 161.879 81.8497 161.315 82.654C160.752 83.452 159.887 83.946 158.722 84.136L157.743 84.2215H154.219V89H151.929ZM159.786 89L157.088 83.433L159.415 82.92L162.379 89H159.786ZM154.219 82.084H157.487C157.614 82.084 157.756 82.0777 157.914 82.065C158.073 82.0523 158.218 82.027 158.351 81.989C158.731 81.894 159.029 81.7262 159.244 81.4855C159.466 81.2448 159.621 80.9725 159.71 80.6685C159.805 80.3645 159.852 80.0668 159.852 79.7755C159.852 79.4842 159.805 79.1865 159.71 78.8825C159.621 78.5722 159.466 78.2967 159.244 78.056C159.029 77.8153 158.731 77.6475 158.351 77.5525C158.218 77.5145 158.073 77.4923 157.914 77.486C157.756 77.4733 157.614 77.467 157.487 77.467H154.219V82.084ZM163.332 89V75.32H172.167V77.467H165.622V80.8395H171.027V82.9865H165.622V86.853H172.167V89H163.332ZM173.307 89V75.32H181.543V77.6095H175.596V81.02H180.403V83.3H175.596V89H173.307ZM187.622 89.285C186.533 89.285 185.573 89.0633 184.743 88.62C183.92 88.1767 183.274 87.5528 182.805 86.7485C182.343 85.9442 182.112 85.0005 182.112 83.9175V75.339L184.43 75.32V83.8605C184.43 84.3735 184.515 84.8327 184.686 85.238C184.864 85.6433 185.101 85.9885 185.399 86.2735C185.697 86.5522 186.039 86.7643 186.425 86.91C186.811 87.0557 187.21 87.1285 187.622 87.1285C188.046 87.1285 188.448 87.0557 188.828 86.91C189.215 86.758 189.557 86.5427 189.854 86.264C190.152 85.979 190.386 85.6338 190.557 85.2285C190.728 84.8232 190.814 84.3672 190.814 83.8605V75.32H193.132V83.9175C193.132 85.0005 192.898 85.9442 192.429 86.7485C191.967 87.5528 191.321 88.1767 190.491 88.62C189.668 89.0633 188.711 89.285 187.622 89.285ZM194.647 89V75.32H196.965L203.311 84.9625V75.32H205.629V89H203.311L196.965 79.3575V89H194.647ZM207.144 89V75.32H211.505C211.619 75.32 211.844 75.3232 212.179 75.3295C212.521 75.3358 212.851 75.358 213.167 75.396C214.25 75.5353 215.166 75.9217 215.913 76.555C216.667 77.182 217.237 77.9832 217.623 78.9585C218.009 79.9338 218.202 81.001 218.202 82.16C218.202 83.319 218.009 84.3862 217.623 85.3615C217.237 86.3368 216.667 87.1412 215.913 87.7745C215.166 88.4015 214.25 88.7847 213.167 88.924C212.857 88.962 212.531 88.9842 212.189 88.9905C211.847 88.9968 211.619 89 211.505 89H207.144ZM209.472 86.8435H211.505C211.695 86.8435 211.936 86.8372 212.227 86.8245C212.525 86.8118 212.787 86.7833 213.015 86.739C213.661 86.6187 214.187 86.3305 214.592 85.8745C214.998 85.4185 215.295 84.8643 215.485 84.212C215.682 83.5597 215.78 82.8757 215.78 82.16C215.78 81.419 215.682 80.7223 215.485 80.07C215.289 79.4177 214.985 78.8698 214.573 78.4265C214.168 77.9832 213.649 77.7013 213.015 77.581C212.787 77.5303 212.525 77.5018 212.227 77.4955C211.936 77.4828 211.695 77.4765 211.505 77.4765H209.472V86.8435Z" fill="white"/>
<rect x="78" y="159" width="394" height="55" rx="27.5" fill="#444851"/>
<path d="M109.394 194.285C108.393 194.285 107.49 194.111 106.686 193.762C105.888 193.414 105.229 192.917 104.71 192.271C104.197 191.619 103.871 190.846 103.732 189.953L106.107 189.592C106.309 190.403 106.724 191.03 107.351 191.473C107.984 191.916 108.713 192.138 109.536 192.138C110.024 192.138 110.483 192.062 110.914 191.91C111.344 191.758 111.693 191.536 111.959 191.245C112.231 190.954 112.367 190.596 112.367 190.171C112.367 189.981 112.335 189.807 112.272 189.649C112.209 189.484 112.114 189.339 111.987 189.212C111.867 189.085 111.708 188.971 111.512 188.87C111.322 188.762 111.1 188.67 110.847 188.594L107.313 187.549C107.009 187.461 106.68 187.344 106.325 187.198C105.977 187.046 105.644 186.84 105.328 186.58C105.017 186.314 104.761 185.979 104.558 185.573C104.362 185.162 104.264 184.655 104.264 184.053C104.264 183.173 104.485 182.435 104.929 181.84C105.378 181.238 105.98 180.789 106.734 180.491C107.494 180.193 108.336 180.048 109.261 180.054C110.198 180.06 111.034 180.222 111.769 180.538C112.503 180.849 113.118 181.302 113.612 181.897C114.106 182.492 114.454 183.211 114.657 184.053L112.196 184.481C112.095 184 111.898 183.591 111.607 183.255C111.322 182.913 110.971 182.654 110.553 182.476C110.141 182.299 109.701 182.204 109.232 182.191C108.776 182.185 108.352 182.255 107.959 182.4C107.573 182.54 107.259 182.742 107.019 183.008C106.784 183.274 106.667 183.585 106.667 183.939C106.667 184.275 106.768 184.551 106.971 184.766C107.174 184.975 107.424 185.143 107.722 185.269C108.026 185.39 108.333 185.491 108.643 185.573L111.094 186.257C111.43 186.346 111.807 186.466 112.225 186.618C112.643 186.77 113.045 186.983 113.431 187.255C113.817 187.527 114.134 187.885 114.381 188.328C114.634 188.772 114.761 189.335 114.761 190.019C114.761 190.729 114.612 191.353 114.315 191.891C114.023 192.423 113.627 192.866 113.127 193.221C112.627 193.576 112.054 193.842 111.408 194.019C110.768 194.196 110.097 194.285 109.394 194.285ZM121.463 194.285C120.095 194.285 118.923 193.987 117.948 193.392C116.972 192.79 116.222 191.954 115.696 190.884C115.177 189.814 114.917 188.572 114.917 187.16C114.917 185.748 115.177 184.506 115.696 183.436C116.222 182.366 116.972 181.533 117.948 180.937C118.923 180.336 120.095 180.035 121.463 180.035C122.831 180.035 124.002 180.336 124.978 180.937C125.959 181.533 126.71 182.366 127.229 183.436C127.755 184.506 128.018 185.748 128.018 187.16C128.018 188.572 127.755 189.814 127.229 190.884C126.71 191.954 125.959 192.79 124.978 193.392C124.002 193.987 122.831 194.285 121.463 194.285ZM121.463 192.128C122.381 192.135 123.144 191.932 123.752 191.52C124.367 191.109 124.826 190.529 125.13 189.782C125.44 189.035 125.595 188.161 125.595 187.16C125.595 186.159 125.44 185.292 125.13 184.557C124.826 183.816 124.367 183.24 123.752 182.828C123.144 182.416 122.381 182.204 121.463 182.191C120.544 182.185 119.781 182.388 119.173 182.799C118.565 183.211 118.106 183.791 117.796 184.538C117.492 185.285 117.34 186.159 117.34 187.16C117.34 188.161 117.492 189.031 117.796 189.772C118.1 190.507 118.556 191.08 119.164 191.492C119.778 191.904 120.544 192.116 121.463 192.128ZM128.769 194V180.32H134.421C134.554 180.32 134.725 180.326 134.934 180.339C135.143 180.345 135.336 180.364 135.514 180.396C136.305 180.516 136.958 180.779 137.471 181.184C137.99 181.59 138.373 182.103 138.62 182.723C138.874 183.338 139 184.022 139 184.775C139 185.523 138.874 186.207 138.62 186.827C138.367 187.442 137.981 187.952 137.461 188.357C136.948 188.762 136.299 189.025 135.514 189.145C135.336 189.171 135.14 189.19 134.925 189.203C134.716 189.215 134.548 189.221 134.421 189.221H131.058V194H128.769ZM131.058 187.084H134.326C134.453 187.084 134.595 187.078 134.754 187.065C134.912 187.052 135.058 187.027 135.191 186.989C135.571 186.894 135.868 186.726 136.084 186.485C136.305 186.245 136.461 185.972 136.549 185.668C136.644 185.364 136.692 185.067 136.692 184.775C136.692 184.484 136.644 184.186 136.549 183.882C136.461 183.572 136.305 183.297 136.084 183.056C135.868 182.815 135.571 182.647 135.191 182.552C135.058 182.514 134.912 182.492 134.754 182.486C134.595 182.473 134.453 182.467 134.326 182.467H131.058V187.084ZM142.237 188.908V187.112H147.937V188.908H142.237ZM151.929 194V180.32H160.166V182.609H154.219V186.02H159.026V188.3H154.219V194H151.929ZM159.599 194L163.912 180.32H167.266L171.579 194H169.223L165.309 181.726H165.822L161.955 194H159.599ZM162.003 191.036V188.898H169.185V191.036H162.003ZM172.346 194V180.32H174.636V194H172.346ZM176.531 194V180.32H178.821V191.853H184.863V194H176.531ZM185.332 194V180.32H194.167V182.467H187.622V185.839H193.027V187.986H187.622V191.853H194.167V194H185.332ZM195.307 194V180.32H199.667C199.781 180.32 200.006 180.323 200.342 180.329C200.684 180.336 201.013 180.358 201.33 180.396C202.413 180.535 203.328 180.922 204.075 181.555C204.829 182.182 205.399 182.983 205.785 183.958C206.171 184.934 206.365 186.001 206.365 187.16C206.365 188.319 206.171 189.386 205.785 190.361C205.399 191.337 204.829 192.141 204.075 192.774C203.328 193.401 202.413 193.785 201.33 193.924C201.019 193.962 200.693 193.984 200.351 193.99C200.009 193.997 199.781 194 199.667 194H195.307ZM197.634 191.843H199.667C199.857 191.843 200.098 191.837 200.389 191.824C200.687 191.812 200.95 191.783 201.178 191.739C201.824 191.619 202.349 191.33 202.755 190.874C203.16 190.418 203.458 189.864 203.648 189.212C203.844 188.56 203.942 187.876 203.942 187.16C203.942 186.419 203.844 185.722 203.648 185.07C203.451 184.418 203.147 183.87 202.736 183.426C202.33 182.983 201.811 182.701 201.178 182.581C200.95 182.53 200.687 182.502 200.389 182.495C200.098 182.483 199.857 182.476 199.667 182.476H197.634V191.843ZM213.421 194V182.467H208.994V180.32H220.138V182.467H215.711V194H213.421ZM220.516 194V180.32H226.169C226.302 180.32 226.473 180.326 226.682 180.339C226.891 180.345 227.084 180.364 227.261 180.396C228.053 180.516 228.705 180.779 229.218 181.184C229.738 181.59 230.121 182.103 230.368 182.723C230.621 183.338 230.748 184.022 230.748 184.775C230.748 185.89 230.466 186.85 229.902 187.654C229.339 188.452 228.474 188.946 227.309 189.136L226.33 189.221H222.806V194H220.516ZM228.373 194L225.675 188.433L228.002 187.92L230.966 194H228.373ZM222.806 187.084H226.074C226.201 187.084 226.343 187.078 226.501 187.065C226.66 187.052 226.805 187.027 226.938 186.989C227.318 186.894 227.616 186.726 227.831 186.485C228.053 186.245 228.208 185.972 228.297 185.668C228.392 185.364 228.439 185.067 228.439 184.775C228.439 184.484 228.392 184.186 228.297 183.882C228.208 183.572 228.053 183.297 227.831 183.056C227.616 182.815 227.318 182.647 226.938 182.552C226.805 182.514 226.66 182.492 226.501 182.486C226.343 182.473 226.201 182.467 226.074 182.467H222.806V187.084ZM230.969 194L235.282 180.32H238.636L242.949 194H240.593L236.679 181.726H237.192L233.325 194H230.969ZM233.373 191.036V188.898H240.555V191.036H233.373ZM243.527 194V180.32H245.845L252.191 189.962V180.32H254.509V194H252.191L245.845 184.357V194H243.527ZM261.088 194.285C260.087 194.285 259.185 194.111 258.38 193.762C257.582 193.414 256.924 192.917 256.404 192.271C255.891 191.619 255.565 190.846 255.426 189.953L257.801 189.592C258.003 190.403 258.418 191.03 259.045 191.473C259.679 191.916 260.407 192.138 261.23 192.138C261.718 192.138 262.177 192.062 262.608 191.91C263.038 191.758 263.387 191.536 263.653 191.245C263.925 190.954 264.061 190.596 264.061 190.171C264.061 189.981 264.03 189.807 263.966 189.649C263.903 189.484 263.808 189.339 263.681 189.212C263.561 189.085 263.403 188.971 263.206 188.87C263.016 188.762 262.795 188.67 262.541 188.594L259.007 187.549C258.703 187.461 258.374 187.344 258.019 187.198C257.671 187.046 257.338 186.84 257.022 186.58C256.711 186.314 256.455 185.979 256.252 185.573C256.056 185.162 255.958 184.655 255.958 184.053C255.958 183.173 256.179 182.435 256.623 181.84C257.072 181.238 257.674 180.789 258.428 180.491C259.188 180.193 260.03 180.048 260.955 180.054C261.892 180.06 262.728 180.222 263.463 180.538C264.197 180.849 264.812 181.302 265.306 181.897C265.8 182.492 266.148 183.211 266.351 184.053L263.89 184.481C263.789 184 263.593 183.591 263.301 183.255C263.016 182.913 262.665 182.654 262.247 182.476C261.835 182.299 261.395 182.204 260.926 182.191C260.47 182.185 260.046 182.255 259.653 182.4C259.267 182.54 258.953 182.742 258.713 183.008C258.478 183.274 258.361 183.585 258.361 183.939C258.361 184.275 258.463 184.551 258.665 184.766C258.868 184.975 259.118 185.143 259.416 185.269C259.72 185.39 260.027 185.491 260.337 185.573L262.788 186.257C263.124 186.346 263.501 186.466 263.919 186.618C264.337 186.77 264.739 186.983 265.125 187.255C265.512 187.527 265.828 187.885 266.075 188.328C266.329 188.772 266.455 189.335 266.455 190.019C266.455 190.729 266.306 191.353 266.009 191.891C265.717 192.423 265.322 192.866 264.821 193.221C264.321 193.576 263.748 193.842 263.102 194.019C262.462 194.196 261.791 194.285 261.088 194.285ZM266.422 194L270.735 180.32H274.088L278.401 194H276.045L272.131 181.726H272.644L268.778 194H266.422ZM268.825 191.036V188.898H276.007V191.036H268.825ZM284.393 194.285C283.025 194.285 281.853 193.987 280.878 193.392C279.903 192.79 279.152 191.954 278.626 190.884C278.107 189.814 277.847 188.572 277.847 187.16C277.847 185.748 278.107 184.506 278.626 183.436C279.152 182.366 279.903 181.533 280.878 180.937C281.853 180.336 283.025 180.035 284.393 180.035C285.97 180.035 287.284 180.431 288.335 181.222C289.387 182.008 290.125 183.069 290.549 184.405L288.24 185.041C287.974 184.148 287.522 183.452 286.882 182.951C286.242 182.445 285.413 182.191 284.393 182.191C283.475 182.191 282.708 182.397 282.094 182.809C281.486 183.221 281.027 183.8 280.716 184.547C280.412 185.288 280.257 186.159 280.251 187.16C280.251 188.161 280.403 189.035 280.707 189.782C281.017 190.523 281.48 191.099 282.094 191.511C282.708 191.923 283.475 192.128 284.393 192.128C285.413 192.128 286.242 191.875 286.882 191.368C287.522 190.862 287.974 190.165 288.24 189.278L290.549 189.915C290.125 191.251 289.387 192.315 288.335 193.107C287.284 193.892 285.97 194.285 284.393 194.285ZM294.782 194V182.467H290.355V180.32H301.498V182.467H297.071V194H294.782ZM302.067 194V180.32H304.357V194H302.067ZM311.848 194.285C310.48 194.285 309.308 193.987 308.333 193.392C307.358 192.79 306.607 191.954 306.081 190.884C305.562 189.814 305.302 188.572 305.302 187.16C305.302 185.748 305.562 184.506 306.081 183.436C306.607 182.366 307.358 181.533 308.333 180.937C309.308 180.336 310.48 180.035 311.848 180.035C313.216 180.035 314.388 180.336 315.363 180.937C316.345 181.533 317.095 182.366 317.614 183.436C318.14 184.506 318.403 185.748 318.403 187.16C318.403 188.572 318.14 189.814 317.614 190.884C317.095 191.954 316.345 192.79 315.363 193.392C314.388 193.987 313.216 194.285 311.848 194.285ZM311.848 192.128C312.766 192.135 313.529 191.932 314.137 191.52C314.752 191.109 315.211 190.529 315.515 189.782C315.825 189.035 315.98 188.161 315.98 187.16C315.98 186.159 315.825 185.292 315.515 184.557C315.211 183.816 314.752 183.24 314.137 182.828C313.529 182.416 312.766 182.204 311.848 182.191C310.93 182.185 310.166 182.388 309.558 182.799C308.95 183.211 308.491 183.791 308.181 184.538C307.877 185.285 307.725 186.159 307.725 187.16C307.725 188.161 307.877 189.031 308.181 189.772C308.485 190.507 308.941 191.08 309.549 191.492C310.163 191.904 310.93 192.116 311.848 192.128ZM319.154 194V180.32H321.472L327.818 189.962V180.32H330.136V194H327.818L321.472 184.357V194H319.154Z" fill="white"/>
<rect x="78" y="264" width="394" height="55" rx="27.5" fill="#444851"/>
<path d="M110.394 299.285C109.393 299.285 108.49 299.111 107.686 298.762C106.888 298.414 106.229 297.917 105.71 297.271C105.197 296.619 104.871 295.846 104.732 294.953L107.107 294.592C107.309 295.403 107.724 296.03 108.351 296.473C108.984 296.916 109.713 297.138 110.536 297.138C111.024 297.138 111.483 297.062 111.914 296.91C112.344 296.758 112.693 296.536 112.959 296.245C113.231 295.954 113.367 295.596 113.367 295.171C113.367 294.981 113.335 294.807 113.272 294.649C113.209 294.484 113.114 294.339 112.987 294.212C112.867 294.085 112.708 293.971 112.512 293.87C112.322 293.762 112.1 293.67 111.847 293.594L108.313 292.549C108.009 292.461 107.68 292.344 107.325 292.198C106.977 292.046 106.644 291.84 106.328 291.58C106.017 291.314 105.761 290.979 105.558 290.573C105.362 290.162 105.264 289.655 105.264 289.053C105.264 288.173 105.485 287.435 105.929 286.84C106.378 286.238 106.98 285.789 107.734 285.491C108.494 285.193 109.336 285.048 110.261 285.054C111.198 285.06 112.034 285.222 112.769 285.538C113.503 285.849 114.118 286.302 114.612 286.897C115.106 287.492 115.454 288.211 115.657 289.053L113.196 289.481C113.095 289 112.898 288.591 112.607 288.255C112.322 287.913 111.971 287.654 111.553 287.476C111.141 287.299 110.701 287.204 110.232 287.191C109.776 287.185 109.352 287.255 108.959 287.4C108.573 287.54 108.259 287.742 108.019 288.008C107.784 288.274 107.667 288.585 107.667 288.939C107.667 289.275 107.768 289.551 107.971 289.766C108.174 289.975 108.424 290.143 108.722 290.269C109.026 290.39 109.333 290.491 109.643 290.573L112.094 291.257C112.43 291.346 112.807 291.466 113.225 291.618C113.643 291.77 114.045 291.983 114.431 292.255C114.817 292.527 115.134 292.885 115.381 293.328C115.634 293.772 115.761 294.335 115.761 295.019C115.761 295.729 115.612 296.353 115.315 296.891C115.023 297.423 114.627 297.866 114.127 298.221C113.627 298.576 113.054 298.842 112.408 299.019C111.768 299.196 111.097 299.285 110.394 299.285ZM122.463 299.285C121.095 299.285 119.923 298.987 118.948 298.392C117.972 297.79 117.222 296.954 116.696 295.884C116.177 294.814 115.917 293.572 115.917 292.16C115.917 290.748 116.177 289.506 116.696 288.436C117.222 287.366 117.972 286.533 118.948 285.937C119.923 285.336 121.095 285.035 122.463 285.035C123.831 285.035 125.002 285.336 125.978 285.937C126.959 286.533 127.71 287.366 128.229 288.436C128.755 289.506 129.018 290.748 129.018 292.16C129.018 293.572 128.755 294.814 128.229 295.884C127.71 296.954 126.959 297.79 125.978 298.392C125.002 298.987 123.831 299.285 122.463 299.285ZM122.463 297.128C123.381 297.135 124.144 296.932 124.752 296.52C125.367 296.109 125.826 295.529 126.13 294.782C126.44 294.035 126.595 293.161 126.595 292.16C126.595 291.159 126.44 290.292 126.13 289.557C125.826 288.816 125.367 288.24 124.752 287.828C124.144 287.416 123.381 287.204 122.463 287.191C121.544 287.185 120.781 287.388 120.173 287.799C119.565 288.211 119.106 288.791 118.796 289.538C118.492 290.285 118.34 291.159 118.34 292.16C118.34 293.161 118.492 294.031 118.796 294.772C119.1 295.507 119.556 296.08 120.164 296.492C120.778 296.904 121.544 297.116 122.463 297.128ZM129.769 299V285.32H135.421C135.554 285.32 135.725 285.326 135.934 285.339C136.143 285.345 136.336 285.364 136.514 285.396C137.305 285.516 137.958 285.779 138.471 286.184C138.99 286.59 139.373 287.103 139.62 287.723C139.874 288.338 140 289.022 140 289.775C140 290.523 139.874 291.207 139.62 291.827C139.367 292.442 138.981 292.952 138.461 293.357C137.948 293.762 137.299 294.025 136.514 294.145C136.336 294.171 136.14 294.19 135.925 294.203C135.716 294.215 135.548 294.221 135.421 294.221H132.058V299H129.769ZM132.058 292.084H135.326C135.453 292.084 135.595 292.078 135.754 292.065C135.912 292.052 136.058 292.027 136.191 291.989C136.571 291.894 136.868 291.726 137.084 291.485C137.305 291.245 137.461 290.972 137.549 290.668C137.644 290.364 137.692 290.067 137.692 289.775C137.692 289.484 137.644 289.186 137.549 288.882C137.461 288.572 137.305 288.297 137.084 288.056C136.868 287.815 136.571 287.647 136.191 287.552C136.058 287.514 135.912 287.492 135.754 287.486C135.595 287.473 135.453 287.467 135.326 287.467H132.058V292.084ZM143.237 293.908V292.112H148.937V293.908H143.237ZM151.979 299L156.292 285.32H159.646L163.959 299H161.603L157.689 286.726H158.202L154.335 299H151.979ZM154.383 296.036V293.898H161.565V296.036H154.383ZM169.951 299.285C168.583 299.285 167.411 298.987 166.436 298.392C165.461 297.79 164.71 296.954 164.184 295.884C163.665 294.814 163.405 293.572 163.405 292.16C163.405 290.748 163.665 289.506 164.184 288.436C164.71 287.366 165.461 286.533 166.436 285.937C167.411 285.336 168.583 285.035 169.951 285.035C171.528 285.035 172.842 285.431 173.893 286.222C174.945 287.008 175.683 288.069 176.107 289.405L173.798 290.041C173.532 289.148 173.08 288.452 172.44 287.951C171.8 287.445 170.971 287.191 169.951 287.191C169.033 287.191 168.266 287.397 167.652 287.809C167.044 288.221 166.585 288.8 166.274 289.547C165.97 290.288 165.815 291.159 165.809 292.16C165.809 293.161 165.961 294.035 166.265 294.782C166.575 295.523 167.038 296.099 167.652 296.511C168.266 296.923 169.033 297.128 169.951 297.128C170.971 297.128 171.8 296.875 172.44 296.368C173.08 295.862 173.532 295.165 173.798 294.278L176.107 294.915C175.683 296.251 174.945 297.315 173.893 298.107C172.842 298.892 171.528 299.285 169.951 299.285ZM182.838 299.285C181.47 299.285 180.299 298.987 179.323 298.392C178.348 297.79 177.597 296.954 177.072 295.884C176.552 294.814 176.293 293.572 176.293 292.16C176.293 290.748 176.552 289.506 177.072 288.436C177.597 287.366 178.348 286.533 179.323 285.937C180.299 285.336 181.47 285.035 182.838 285.035C184.415 285.035 185.729 285.431 186.781 286.222C187.832 287.008 188.57 288.069 188.994 289.405L186.686 290.041C186.42 289.148 185.967 288.452 185.327 287.951C184.688 287.445 183.858 287.191 182.838 287.191C181.92 287.191 181.154 287.397 180.539 287.809C179.931 288.221 179.472 288.8 179.162 289.547C178.858 290.288 178.703 291.159 178.696 292.16C178.696 293.161 178.848 294.035 179.152 294.782C179.463 295.523 179.925 296.099 180.539 296.511C181.154 296.923 181.92 297.128 182.838 297.128C183.858 297.128 184.688 296.875 185.327 296.368C185.967 295.862 186.42 295.165 186.686 294.278L188.994 294.915C188.57 296.251 187.832 297.315 186.781 298.107C185.729 298.892 184.415 299.285 182.838 299.285ZM195.726 299.285C194.358 299.285 193.186 298.987 192.211 298.392C191.235 297.79 190.485 296.954 189.959 295.884C189.44 294.814 189.18 293.572 189.18 292.16C189.18 290.748 189.44 289.506 189.959 288.436C190.485 287.366 191.235 286.533 192.211 285.937C193.186 285.336 194.358 285.035 195.726 285.035C197.094 285.035 198.265 285.336 199.241 285.937C200.222 286.533 200.973 287.366 201.492 288.436C202.018 289.506 202.281 290.748 202.281 292.16C202.281 293.572 202.018 294.814 201.492 295.884C200.973 296.954 200.222 297.79 199.241 298.392C198.265 298.987 197.094 299.285 195.726 299.285ZM195.726 297.128C196.644 297.135 197.407 296.932 198.015 296.52C198.629 296.109 199.089 295.529 199.393 294.782C199.703 294.035 199.858 293.161 199.858 292.16C199.858 291.159 199.703 290.292 199.393 289.557C199.089 288.816 198.629 288.24 198.015 287.828C197.407 287.416 196.644 287.204 195.726 287.191C194.807 287.185 194.044 287.388 193.436 287.799C192.828 288.211 192.369 288.791 192.059 289.538C191.755 290.285 191.603 291.159 191.603 292.16C191.603 293.161 191.755 294.031 192.059 294.772C192.363 295.507 192.819 296.08 193.427 296.492C194.041 296.904 194.807 297.116 195.726 297.128ZM208.542 299.285C207.452 299.285 206.493 299.063 205.663 298.62C204.84 298.177 204.194 297.553 203.725 296.748C203.263 295.944 203.032 295 203.032 293.917V285.339L205.35 285.32V293.86C205.35 294.373 205.435 294.833 205.606 295.238C205.783 295.643 206.021 295.988 206.319 296.273C206.616 296.552 206.958 296.764 207.345 296.91C207.731 297.056 208.13 297.128 208.542 297.128C208.966 297.128 209.368 297.056 209.748 296.91C210.134 296.758 210.476 296.543 210.774 296.264C211.072 295.979 211.306 295.634 211.477 295.228C211.648 294.823 211.734 294.367 211.734 293.86V285.32H214.052V293.917C214.052 295 213.817 295.944 213.349 296.748C212.886 297.553 212.24 298.177 211.411 298.62C210.587 299.063 209.631 299.285 208.542 299.285ZM215.566 299V285.32H217.884L224.23 294.962V285.32H226.548V299H224.23L217.884 289.357V299H215.566ZM231.351 299V287.467H226.924V285.32H238.068V287.467H233.641V299H231.351ZM243.199 299V285.32H251.435V287.609H245.488V291.02H250.295V293.3H245.488V299H243.199ZM252.004 299V285.32H257.657C257.79 285.32 257.961 285.326 258.17 285.339C258.379 285.345 258.572 285.364 258.749 285.396C259.541 285.516 260.193 285.779 260.706 286.184C261.225 286.59 261.609 287.103 261.856 287.723C262.109 288.338 262.236 289.022 262.236 289.775C262.236 290.89 261.954 291.85 261.39 292.654C260.826 293.452 259.962 293.946 258.797 294.136L257.818 294.221H254.294V299H252.004ZM259.861 299L257.163 293.433L259.49 292.92L262.454 299H259.861ZM254.294 292.084H257.562C257.688 292.084 257.831 292.078 257.989 292.065C258.147 292.052 258.293 292.027 258.426 291.989C258.806 291.894 259.104 291.726 259.319 291.485C259.541 291.245 259.696 290.972 259.785 290.668C259.88 290.364 259.927 290.067 259.927 289.775C259.927 289.484 259.88 289.186 259.785 288.882C259.696 288.572 259.541 288.297 259.319 288.056C259.104 287.815 258.806 287.647 258.426 287.552C258.293 287.514 258.147 287.492 257.989 287.486C257.831 287.473 257.688 287.467 257.562 287.467H254.294V292.084ZM262.457 299L266.77 285.32H270.124L274.437 299H272.081L268.167 286.726H268.68L264.813 299H262.457ZM264.861 296.036V293.898H272.043V296.036H264.861ZM280.153 299.285C279.064 299.285 278.104 299.063 277.275 298.62C276.451 298.177 275.805 297.553 275.337 296.748C274.874 295.944 274.643 295 274.643 293.917V285.339L276.961 285.32V293.86C276.961 294.373 277.047 294.833 277.218 295.238C277.395 295.643 277.632 295.988 277.93 296.273C278.228 296.552 278.57 296.764 278.956 296.91C279.342 297.056 279.741 297.128 280.153 297.128C280.577 297.128 280.98 297.056 281.36 296.91C281.746 296.758 282.088 296.543 282.386 296.264C282.683 295.979 282.918 295.634 283.089 295.228C283.26 294.823 283.345 294.367 283.345 293.86V285.32H285.663V293.917C285.663 295 285.429 295.944 284.96 296.748C284.498 297.553 283.852 298.177 283.022 298.62C282.199 299.063 281.242 299.285 280.153 299.285ZM287.178 299V285.32H291.538C291.652 285.32 291.877 285.323 292.213 285.329C292.555 285.336 292.884 285.358 293.201 285.396C294.284 285.535 295.199 285.922 295.946 286.555C296.7 287.182 297.27 287.983 297.656 288.958C298.043 289.934 298.236 291.001 298.236 292.16C298.236 293.319 298.043 294.386 297.656 295.361C297.27 296.337 296.7 297.141 295.946 297.774C295.199 298.401 294.284 298.785 293.201 298.924C292.89 298.962 292.564 298.984 292.222 298.99C291.88 298.997 291.652 299 291.538 299H287.178ZM289.505 296.843H291.538C291.728 296.843 291.969 296.837 292.26 296.824C292.558 296.812 292.821 296.783 293.049 296.739C293.695 296.619 294.22 296.33 294.626 295.874C295.031 295.418 295.329 294.864 295.519 294.212C295.715 293.56 295.813 292.876 295.813 292.16C295.813 291.419 295.715 290.722 295.519 290.07C295.322 289.418 295.018 288.87 294.607 288.426C294.201 287.983 293.682 287.701 293.049 287.581C292.821 287.53 292.558 287.502 292.26 287.495C291.969 287.483 291.728 287.476 291.538 287.476H289.505V296.843Z" fill="white"/>
</g>
<defs>
<clipPath id="clip0_153_32">
<rect width="420" height="373" rx="42" fill="white"/>
</clipPath>
</defs>
</svg>
